<svg width="134" height="150" viewBox="0 0 134 150" fill="none" xmlns="http://www.w3.org/2000/svg">
<path d="M58.129 39.726C59.8705 22.3671 71.279 5.76696 88.6957 1.24925C97.1943 -1.00734 106.217 -0.188975 114.171 3.55991C121.371 7.19201 127.032 13.2837 130.126 20.7307C133.18 28.0977 134.349 36.1096 133.528 44.0421C132.599 52.7113 129.831 61.0827 125.411 68.5981C120.687 76.9266 114.544 84.3725 108.096 91.4131C101.526 98.5865 94.0936 105.186 88.5655 113.24C83.6627 120.382 79.7202 130.082 84.552 138.303C86.4454 141.317 89.1676 143.722 92.3926 145.228C95.6175 146.735 99.2085 147.279 102.735 146.797C104.465 146.534 106.138 145.979 107.682 145.155C109.384 144.246 110.902 146.835 109.196 147.745C102.726 151.2 94.681 150.417 88.5686 146.532C81.5232 142.055 78.3783 134.153 79.6988 125.984C81.2043 116.671 87.6985 108.675 93.9339 101.971C100.447 94.9685 107.269 88.282 113.302 80.8427C119.262 73.4943 124.582 65.3836 127.772 56.4252C130.451 48.9389 131.345 40.9304 130.382 33.0377C129.432 25.5005 126.501 18.032 121.243 12.4553C118.336 9.45995 114.856 7.08004 111.01 5.45731C107.164 3.83459 103.032 3.00221 98.8576 3.00971C90.1947 2.89902 81.7953 5.98714 75.2673 11.683C68.8303 17.4404 64.2882 25.0126 62.2393 33.4022C61.7157 35.4803 61.3447 37.5938 61.129 39.726C60.9381 41.6288 57.9361 41.6485 58.129 39.726Z" fill="white"/>
<path d="M67.6745 39.0375L53.4308 34.3344C52.7447 34.1082 52.1099 33.749 51.5627 33.2774C51.0154 32.8058 50.5665 32.231 50.2414 31.5859C49.9164 30.9407 49.7216 30.2378 49.6683 29.5174C49.615 28.7969 49.7041 28.0731 49.9307 27.3871C50.1572 26.7011 50.5166 26.0665 50.9885 25.5194C51.4603 24.9724 52.0353 24.5237 52.6806 24.1989C53.3259 23.8742 54.0289 23.6798 54.7493 23.6268C55.4698 23.5738 56.1936 23.6632 56.8795 23.89L71.1232 28.5932C71.8099 28.8189 72.4454 29.1777 72.9933 29.6492C73.5412 30.1207 73.9907 30.6956 74.3163 31.341C74.6418 31.9864 74.837 32.6897 74.8905 33.4105C74.944 34.1314 74.8549 34.8557 74.6282 35.5421C74.4016 36.2285 74.0418 36.8635 73.5696 37.4107C73.0973 37.958 72.5218 38.4068 71.876 38.7314C71.2301 39.056 70.5266 39.2502 69.8057 39.3027C69.0848 39.3552 68.3606 39.2651 67.6745 39.0375Z" fill="white"/>
<path d="M53.5192 146.772C83.077 146.772 107.038 122.81 107.038 93.2524C107.038 63.6946 83.077 39.7333 53.5192 39.7333C23.9613 39.7333 0 63.6946 0 93.2524C0 122.81 23.9613 146.772 53.5192 146.772Z" fill="#DADADA"/>
<path d="M35.6392 106.33C32.3331 106.237 28.2183 106.122 25.0494 103.806C24.1056 103.089 23.33 102.174 22.7772 101.125C22.2244 100.076 21.9077 98.9191 21.8492 97.735C21.7916 96.8931 21.9295 96.0494 22.2523 95.2697C22.575 94.4901 23.0738 93.7957 23.7095 93.2408C25.3658 91.8414 27.7823 91.5143 30.3882 92.2799L27.6885 72.5533L29.67 72.2819L32.8438 95.4723L31.189 94.7135C29.2706 93.8326 26.6368 93.3854 25.0005 94.7682C24.5987 95.1297 24.2857 95.579 24.0858 96.0812C23.886 96.5834 23.8047 97.1249 23.8482 97.6637C23.8965 98.5451 24.1342 99.4057 24.545 100.187C24.9559 100.968 25.5303 101.652 26.2291 102.191C28.6954 103.993 31.9752 104.226 35.6949 104.33L35.6392 106.33Z" fill="#2F2E41"/>
<path d="M51.8896 74.2555H41.1177V76.2555H51.8896V74.2555Z" fill="#2F2E41"/>
</svg>
