<svg width="384" height="367" viewBox="0 0 384 367" fill="none" xmlns="http://www.w3.org/2000/svg">
<path d="M85.8423 71.841C86.2362 72.5675 85.2021 73.0973 84.6945 72.429C80.4614 66.8549 76.2275 61.2834 71.9929 55.7146C71.9883 55.7064 71.9824 55.6991 71.9753 55.693C71.6736 55.3442 71.3964 54.9749 71.1457 54.5878C66.3135 52.7312 61.313 49.5326 56.3372 47.3925C51.6007 46.7824 46.8457 46.294 42.1151 45.6094C37.9816 45.0403 33.8862 44.2223 29.8513 43.1597C26.5738 42.2646 23.0446 41.2979 20.4439 39.0972C17.7404 36.8097 16.7877 33.4791 16.7845 30.3184C16.7965 28.7089 16.953 27.1038 17.2521 25.5223L19.8279 15.9093C21.3722 11.8368 23.7733 8.03612 28.0555 6.05326C34.4814 3.07759 42.3742 5.06997 49.1273 6.74848C57.1743 8.7408 65.0975 11.2038 72.8558 14.1246C79.1763 16.511 85.8377 18.9675 91.1726 23.0795C93.46 24.8457 95.4872 26.9899 96.7192 29.4871C98.1016 32.3126 98.4783 35.5252 97.7871 38.5937C96.406 45.0207 91.6613 49.9676 88.3094 55.4863C85.404 60.2628 82.8664 66.3165 85.8423 71.841Z" fill="#F2F2F2"/>
<path d="M286.882 246.749C285.998 246.926 285.867 245.659 286.736 245.343C293.984 242.71 301.231 240.076 308.474 237.439C308.484 237.437 308.494 237.433 308.503 237.428C308.971 237.224 309.45 237.053 309.936 236.916C313.679 232.425 318.836 228.199 322.919 223.649C325.371 218.848 327.708 213.987 330.232 209.217C332.408 205.04 334.82 200.984 337.455 197.073C339.627 193.907 341.969 190.498 345.191 188.477C348.541 186.376 352.26 186.468 355.44 187.507C357.054 188.05 358.607 188.745 360.082 189.582L368.75 195.472C372.246 198.445 375.136 202.234 375.469 207.41C375.967 215.177 370.9 222.856 366.592 229.434C361.465 237.276 355.913 244.832 349.965 252.062C345.112 257.95 340.057 264.176 333.851 268.454C331.187 270.287 328.244 271.721 325.254 272.199C321.876 272.728 318.5 272.066 315.682 270.325C309.754 266.747 306.621 260.106 302.372 254.746C298.696 250.103 293.592 245.428 286.882 246.749Z" fill="#F2F2F2"/>
<path d="M57.9638 188C53.5605 187.999 49.1715 187.509 44.8806 186.537C42.6739 186.035 40.4994 185.404 38.3683 184.65L38.2789 184.62C35.5407 183.645 32.8813 182.467 30.3233 181.099C29.666 180.751 29.0015 180.379 28.3507 179.993C27.9028 179.733 27.4614 179.466 27.0199 179.193C18.4959 173.9 11.523 166.515 6.78929 157.765C2.05555 149.015 -0.275542 139.204 0.0259372 129.299C0.327417 119.394 3.25105 109.737 8.50847 101.281C13.7659 92.8248 21.1754 85.862 30.0062 81.0791C38.837 76.2962 48.7839 73.8584 58.8657 74.0064C68.9475 74.1543 78.8159 76.8827 87.4975 81.9225C96.1791 86.9624 103.374 94.1394 108.372 102.746C113.37 111.352 115.999 121.091 116 131V131C115.973 140.779 113.399 150.389 108.524 158.914C103.648 167.44 96.6327 174.596 88.1461 179.702C87.1497 180.299 86.1225 180.872 85.0059 181.452C83.4879 182.242 81.9366 182.96 80.3907 183.591L80.1041 183.712C79.5692 183.929 79.0344 184.137 78.4946 184.333C78.2487 184.427 77.9903 184.523 77.7323 184.615C71.411 186.858 64.7412 188.003 58.0207 188C58.0018 187.999 57.9832 188 57.9638 188ZM38.5457 183.651L38.6306 183.68C40.7501 184.434 42.9136 185.063 45.1096 185.563C49.3255 186.517 53.6379 187 57.9643 187C57.9829 187 58.0013 187.001 58.0202 187C64.6231 187.003 71.1763 185.878 77.387 183.675C77.6371 183.586 77.8875 183.493 78.1332 183.398C78.5614 183.242 78.982 183.082 79.4011 182.915V182.914L79.7176 182.782C81.3277 182.136 82.9469 181.392 84.5303 180.568C85.6285 179.997 86.638 179.435 87.617 178.848C95.9547 173.832 102.847 166.801 107.637 158.425C112.427 150.05 114.956 140.609 114.983 131.001C114.982 121.265 112.399 111.697 107.489 103.242C102.578 94.7863 95.5095 87.7351 86.9804 82.7837C78.4512 77.8323 68.7559 75.1516 58.851 75.0062C48.9462 74.8608 39.1738 77.2557 30.4979 81.9545C21.8221 86.6534 14.5425 93.4939 9.3772 101.801C4.21192 110.109 1.33941 119.596 1.04303 129.328C0.746657 139.059 3.03665 148.698 7.68712 157.294C12.3376 165.891 19.1879 173.147 27.5622 178.347C27.995 178.614 28.4284 178.876 28.8723 179.135C29.5127 179.514 30.1626 179.878 30.8077 180.219C33.2965 181.551 35.883 182.698 38.5457 183.651Z" fill="#E6E6E6"/>
<path d="M93.2194 95.4178C97.6695 95.4178 101.277 91.8723 101.277 87.4986C101.277 83.1249 97.6695 79.5793 93.2194 79.5793C88.7692 79.5793 85.1616 83.1249 85.1616 87.4986C85.1616 91.8723 88.7692 95.4178 93.2194 95.4178Z" fill="#CCCCCC"/>
<path d="M58.6196 161.167C73.6569 161.167 85.847 149.187 85.847 134.408C85.847 119.629 73.6569 107.648 58.6196 107.648C43.5822 107.648 31.3921 119.629 31.3921 134.408C31.3921 149.187 43.5822 161.167 58.6196 161.167Z" fill="#F2F2F2"/>
<path d="M77.8633 144.304L77.835 143.304C79.7278 143.252 81.3967 143.135 82.6506 142.235C83.0061 141.965 83.2983 141.623 83.5074 141.233C83.7164 140.842 83.8374 140.412 83.8621 139.971C83.8842 139.702 83.8427 139.431 83.741 139.18C83.6393 138.929 83.48 138.704 83.2756 138.524C82.4435 137.832 81.104 138.056 80.1275 138.496L79.2857 138.876L80.9001 127.281L81.9081 127.416L80.5349 137.28C81.8617 136.896 83.0906 137.061 83.9324 137.76C84.2557 138.037 84.5093 138.384 84.6735 138.774C84.8376 139.164 84.9079 139.585 84.8789 140.006C84.8492 140.598 84.688 141.177 84.4068 141.701C84.1256 142.226 83.731 142.684 83.2508 143.043C81.6396 144.2 79.5458 144.258 77.8633 144.304Z" fill="#2F2E41"/>
<path d="M75.0761 128.267H69.5962V129.267H75.0761V128.267Z" fill="#2F2E41"/>
<path d="M74.7138 106.071C73.6968 100.114 69.8568 94.9919 64.9161 91.5344C60.0725 88.2049 54.2821 86.465 48.3722 86.5634C36.9289 86.6871 25.7399 92.9862 19.6048 102.438C12.8079 112.91 12.6738 126.585 17.2686 137.907C18.4433 140.823 19.9325 143.608 21.7109 146.212C23.6833 149.085 26.0727 151.619 28.3967 154.213C32.7279 159.047 37.6934 165.771 34.7911 172.517C33.7191 175.009 31.4577 177.274 28.5798 177.452C26.1504 177.603 23.4569 176.461 22.3796 174.217C21.1729 171.702 22.8437 168.727 25.3122 167.697C27.9013 166.618 30.5922 168.21 31.5486 170.66C32.0238 171.787 32.0399 173.051 31.5937 174.19C31.4985 174.363 31.4738 174.566 31.5246 174.756C31.5754 174.947 31.698 175.111 31.8675 175.216C32.0425 175.315 32.2503 175.343 32.4457 175.292C32.6412 175.242 32.8086 175.118 32.9116 174.947C33.4253 173.685 33.5368 172.299 33.2313 170.974C32.9259 169.648 32.2178 168.444 31.201 167.523C30.1691 166.551 28.8203 165.971 27.394 165.884C25.9677 165.797 24.5564 166.21 23.4105 167.05C20.991 168.786 19.7116 171.895 20.9378 174.701C21.9994 177.13 24.5681 178.597 27.1622 178.907C28.5932 179.045 30.0363 178.817 31.351 178.245C32.6658 177.673 33.8075 176.776 34.665 175.642C36.5782 173.18 37.4451 170.084 37.0833 167.006C36.2341 159.329 29.9935 154.081 25.3088 148.463C21.1429 143.429 18.207 137.523 16.727 131.199C15.2124 124.983 15.2688 118.498 16.8914 112.308C18.4651 106.44 21.6997 101.13 26.2198 96.9955C30.5581 93.0441 35.8563 90.2541 41.6066 88.8927C47.2918 87.5017 53.2745 87.8595 58.7461 89.9178C64.4813 92.1538 69.5711 96.5782 71.9965 102.212C72.5793 103.579 72.9974 105.008 73.2421 106.47C73.4042 107.42 74.8753 107.017 74.7138 106.071Z" fill="#CCCCCC"/>
<path d="M74.6802 106.297C77.2284 103.884 81.3822 103.537 84.4525 105.171C87.6283 106.861 88.9027 110.502 88.0882 113.871C87.67 115.753 86.5637 117.419 84.979 118.552C84.1786 119.1 84.9406 120.401 85.7494 119.847C89.1847 117.497 90.6313 112.968 89.4588 109.05C88.2346 104.959 84.1689 102.516 79.9227 102.679C77.5677 102.741 75.3177 103.651 73.601 105.237C72.8924 105.908 73.9724 106.968 74.6802 106.297Z" fill="#CCCCCC"/>
<path d="M244.963 366.932C240.407 366.931 235.867 366.415 231.428 365.392C229.145 364.863 226.896 364.2 224.691 363.406L224.599 363.374C221.766 362.348 219.015 361.108 216.369 359.668C215.689 359.302 215.002 358.91 214.328 358.504C213.865 358.23 213.408 357.949 212.952 357.662C204.134 352.09 196.92 344.316 192.023 335.106C187.126 325.896 184.715 315.568 185.027 305.141C185.339 294.715 188.363 284.55 193.802 275.649C199.241 266.748 206.906 259.419 216.041 254.384C225.176 249.349 235.466 246.783 245.896 246.939C256.325 247.095 266.534 249.967 275.515 255.272C284.496 260.577 291.939 268.132 297.109 277.191C302.28 286.25 304.999 296.501 305 306.932V306.932C304.972 317.226 302.31 327.342 297.266 336.316C292.222 345.29 284.965 352.823 276.186 358.198C275.155 358.826 274.092 359.429 272.937 360.039C271.367 360.871 269.762 361.627 268.163 362.291L267.866 362.418C267.313 362.647 266.76 362.866 266.201 363.073C265.947 363.171 265.68 363.273 265.413 363.369C258.874 365.73 251.974 366.936 245.021 366.932C245.002 366.933 244.982 366.932 244.963 366.932ZM224.875 362.355L224.963 362.384C227.155 363.178 229.393 363.84 231.665 364.366C236.026 365.371 240.488 365.879 244.963 365.88C244.982 365.881 245.001 365.88 245.021 365.88C251.852 365.883 258.631 364.699 265.055 362.379C265.314 362.286 265.573 362.188 265.827 362.088C266.27 361.924 266.706 361.755 267.139 361.579V361.579L267.466 361.44C269.132 360.76 270.807 359.976 272.445 359.109C273.581 358.508 274.626 357.916 275.638 357.299C284.263 352.018 291.393 344.617 296.349 335.801C301.304 326.985 303.92 317.047 303.947 306.933C303.947 296.685 301.275 286.613 296.195 277.713C291.115 268.813 283.803 261.39 274.98 256.178C266.156 250.966 256.127 248.145 245.88 247.992C235.634 247.839 225.525 250.359 216.55 255.306C207.575 260.252 200.044 267.452 194.701 276.197C189.357 284.942 186.386 294.928 186.079 305.172C185.772 315.415 188.141 325.562 192.952 334.61C197.763 343.659 204.85 351.297 213.513 356.771C213.96 357.052 214.409 357.328 214.868 357.6C215.53 358 216.203 358.383 216.87 358.742C219.445 360.144 222.12 361.351 224.875 362.355Z" fill="#E6E6E6"/>
<path d="M277.824 264.579C282.307 264.579 285.941 260.945 285.941 256.462C285.941 251.979 282.307 248.344 277.824 248.344C273.34 248.344 269.706 251.979 269.706 256.462C269.706 260.945 273.34 264.579 277.824 264.579Z" fill="#CCCCCC"/>
<path d="M244.294 339.403C259.888 339.403 272.529 326.762 272.529 311.168C272.529 295.574 259.888 282.932 244.294 282.932C228.7 282.932 216.059 295.574 216.059 311.168C216.059 326.762 228.7 339.403 244.294 339.403Z" fill="#CCCCCC"/>
<path d="M242.911 321.05L242.882 319.972C244.777 319.916 246.448 319.79 247.704 318.82C248.06 318.529 248.352 318.16 248.562 317.739C248.771 317.318 248.892 316.854 248.917 316.379C248.939 316.088 248.897 315.796 248.795 315.526C248.694 315.255 248.534 315.013 248.33 314.818C247.496 314.073 246.155 314.314 245.178 314.789L244.335 315.198L245.951 302.697L246.96 302.843L245.586 313.477C246.914 313.064 248.144 313.242 248.987 313.995C249.311 314.294 249.565 314.668 249.729 315.088C249.893 315.508 249.964 315.963 249.935 316.416C249.905 317.055 249.744 317.679 249.462 318.244C249.181 318.81 248.785 319.303 248.305 319.69C246.692 320.938 244.595 321 242.911 321.05Z" fill="#2F2E41"/>
<path d="M257.706 304.109H252.059V304.815H257.706V304.109Z" fill="#2F2E41"/>
<path d="M240.059 304.109H234.412V304.815H240.059V304.109Z" fill="#2F2E41"/>
<path d="M250.984 293.465C254.346 293.149 257.161 290.896 258.654 287.88C259.416 286.32 259.816 284.604 259.823 282.863C259.831 281.122 259.445 279.402 258.696 277.835C257.111 274.55 254.468 271.908 251.201 270.347C247.401 268.484 243.11 267.969 238.93 268.14C231.054 268.461 222.376 270.699 217.535 277.495C215.257 280.577 214.267 284.442 214.779 288.255C215.391 292.257 217.798 295.723 220.369 298.711C223.062 301.842 226.17 304.662 228.299 308.249C230.141 311.353 231.132 315.262 229.9 318.784C229.606 319.619 229.17 320.395 228.611 321.078C227.974 321.856 229.074 322.98 229.716 322.196C231.933 319.489 232.381 315.915 231.683 312.547C230.915 308.839 228.698 305.704 226.274 302.903C221.557 297.454 214.532 291.503 216.514 283.362C217.445 279.834 219.564 276.744 222.504 274.627C225.657 272.314 229.4 271.041 233.204 270.35C240.484 269.027 249.299 269.165 254.798 274.905C257.084 277.29 258.656 280.623 258.235 284.006C257.855 287.056 255.931 290.048 253.117 291.32C252.441 291.624 251.72 291.814 250.984 291.884C249.991 291.977 249.981 293.559 250.984 293.465Z" fill="#CCCCCC"/>
<rect x="115.313" y="166.504" width="5.96471" height="23.4" rx="2.98235" transform="rotate(48.2056 115.313 166.504)" fill="#F2F2F2"/>
<rect x="134.562" y="182.53" width="5.96471" height="33.9529" rx="2.98235" transform="rotate(48.2056 134.562 182.53)" fill="#F2F2F2"/>
<rect x="126.322" y="178.819" width="5.96471" height="25.6941" rx="2.98235" transform="rotate(48.2056 126.322 178.819)" fill="#F2F2F2"/>
<rect x="132.883" y="195.109" width="5.96471" height="14.6824" rx="2.98235" transform="rotate(48.2056 132.883 195.109)" fill="#F2F2F2"/>
<rect x="126.975" y="167.157" width="5.96471" height="42.2118" rx="2.98235" transform="rotate(48.2056 126.975 167.157)" fill="#F2F2F2"/>
<rect x="172.771" y="226.897" width="5.96471" height="23.4" rx="2.98235" transform="rotate(44.4372 172.771 226.897)" fill="#F2F2F2"/>
<rect x="193.032" y="241.623" width="5.96471" height="33.9529" rx="2.98235" transform="rotate(44.4372 193.032 241.623)" fill="#F2F2F2"/>
<rect x="184.565" y="238.461" width="5.96471" height="25.6941" rx="2.98235" transform="rotate(44.4372 184.565 238.461)" fill="#F2F2F2"/>
<rect x="192.183" y="254.285" width="5.96471" height="14.6824" rx="2.98235" transform="rotate(44.4372 192.183 254.285)" fill="#F2F2F2"/>
<rect x="184.451" y="226.782" width="5.96471" height="42.2118" rx="2.98235" transform="rotate(44.4372 184.451 226.782)" fill="#F2F2F2"/>
<path d="M69.296 247.295L56.871 242.132L59.922 234.79C60.5424 233.292 60.5433 231.609 59.9245 230.11C59.3057 228.612 58.1177 227.42 56.6211 226.796L36.2893 218.347C34.7913 217.726 33.1083 217.726 31.6096 218.344C30.1108 218.963 28.9187 220.151 28.2947 221.648L22.6622 235.202C22.0418 236.7 22.0409 238.383 22.6597 239.882C23.2785 241.381 24.4665 242.573 25.9631 243.197L24.9821 245.558C24.7961 246.003 24.7467 246.493 24.8404 246.967C24.934 247.44 25.1664 247.875 25.508 248.216C25.8502 248.56 26.2872 248.795 26.7633 248.89C27.2393 248.985 27.733 248.937 28.1813 248.751C28.239 248.728 28.2947 248.701 28.3478 248.669L32.746 246.015L38.3881 248.36L35.3371 255.702C34.7167 257.2 34.7158 258.883 35.3346 260.382C35.9534 261.88 37.1414 263.073 38.638 263.697L51.1601 268.9L53.4707 274.496C53.6554 274.943 53.9685 275.326 54.3704 275.595C54.7724 275.864 55.2451 276.008 55.7289 276.009C56.2127 276.009 56.6858 275.866 57.0883 275.598C57.4909 275.33 57.8049 274.948 57.9906 274.502L58.9698 272.145C60.4678 272.766 62.1508 272.767 63.6495 272.148C65.1483 271.529 66.3404 270.341 66.9644 268.844L72.5968 255.29C73.2173 253.792 73.2182 252.109 72.5994 250.61C71.9806 249.111 70.7926 247.919 69.296 247.295ZM33.1143 243.519C32.9379 243.447 32.7471 243.417 32.557 243.432C32.3669 243.446 32.1829 243.505 32.0197 243.604L27.252 246.47L28.6915 243.006C28.816 242.706 28.8164 242.37 28.6926 242.07C28.5688 241.77 28.3309 241.532 28.0314 241.407L26.9018 240.938C26.0031 240.564 25.2896 239.849 24.9181 238.95C24.5467 238.05 24.5479 237.04 24.9213 236.141L30.5538 222.586C30.9273 221.688 31.6425 220.974 32.542 220.603C33.4416 220.231 34.4519 220.233 35.3506 220.606L55.6824 229.055C56.5811 229.428 57.2946 230.143 57.6661 231.043C58.0375 231.942 58.0363 232.953 57.6629 233.851L54.6119 241.193L48.9642 238.847C47.761 238.351 46.4303 238.255 45.1686 238.574L44.8616 229.307C44.8537 229.072 44.7785 228.845 44.645 228.652C44.5115 228.459 44.3252 228.309 44.1085 228.219C43.8918 228.128 43.6538 228.103 43.4228 228.144C43.1918 228.186 42.9777 228.293 42.8059 228.453L31.995 238.531C31.8776 238.641 31.783 238.772 31.7166 238.919C31.6501 239.065 31.6132 239.223 31.608 239.384C31.6027 239.545 31.6292 239.705 31.6859 239.855C31.7426 240.006 31.8284 240.144 31.9384 240.261C32.0556 240.388 32.199 240.489 32.3588 240.556C32.5756 240.646 32.8137 240.672 33.0447 240.63C33.2758 240.589 33.4899 240.481 33.6617 240.321L37.0172 237.194L42.753 239.577L42.7605 239.785C41.9766 240.412 41.3612 241.224 40.9696 242.147L39.3268 246.101L33.1143 243.519ZM42.665 236.891L38.9827 235.361L42.505 232.077L42.665 236.891ZM64.7053 267.906C64.3318 268.804 63.6166 269.518 62.7171 269.889C61.8175 270.261 60.8072 270.26 59.9085 269.886L58.779 269.417C58.4794 269.292 58.1426 269.292 57.8428 269.416C57.5429 269.54 57.3045 269.777 57.1801 270.077L55.7316 273.563L53.2275 267.498C53.1038 267.198 52.866 266.96 52.5665 266.835L39.5767 261.437C38.678 261.064 37.9644 260.349 37.593 259.449C37.2216 258.55 37.2228 257.539 37.5962 256.641L43.2287 243.086C43.6022 242.187 44.3173 241.474 45.2169 241.103C46.1165 240.731 47.1267 240.732 48.0255 241.106L68.3573 249.554C69.256 249.928 69.9695 250.643 70.3409 251.543C70.7124 252.442 70.7112 253.452 70.3378 254.351L64.7053 267.906Z" fill="white"/>
<path d="M61.2576 253.89L56.7394 252.012L57.6782 249.753C57.8026 249.453 57.803 249.117 57.6792 248.817C57.5554 248.517 57.3176 248.279 57.018 248.154C56.7184 248.03 56.3817 248.029 56.0818 248.153C55.7819 248.277 55.5436 248.515 55.4191 248.814L54.4803 251.073L49.9621 249.196C49.6626 249.071 49.3258 249.071 49.026 249.195C48.7261 249.319 48.4877 249.556 48.3632 249.856C48.2387 250.156 48.2384 250.492 48.3622 250.792C48.486 251.092 48.7238 251.33 49.0234 251.455L57.4046 254.938C56.3306 256.742 54.6279 258.085 52.6235 258.71C52.0561 257.623 51.7296 256.427 51.6664 255.202C51.6622 255.039 51.6253 254.879 51.5581 254.73C51.4909 254.582 51.3947 254.448 51.2751 254.337C51.1556 254.226 51.015 254.141 50.8618 254.085C50.7086 254.029 50.5458 254.005 50.3829 254.013C50.2201 254.021 50.0605 254.061 49.9136 254.132C49.7666 254.203 49.6353 254.302 49.5273 254.424C49.4193 254.546 49.3368 254.689 49.2847 254.843C49.2326 254.998 49.2118 255.161 49.2237 255.324C49.2964 256.63 49.6049 257.913 50.1344 259.109C48.9529 259.119 47.7817 258.89 46.6917 258.433C46.5451 258.373 46.388 258.343 46.2296 258.345C46.0711 258.346 45.9146 258.38 45.7693 258.443C45.6239 258.506 45.4927 258.597 45.3833 258.712C45.2739 258.827 45.1886 258.962 45.1323 259.11C45.0153 259.418 45.023 259.759 45.154 260.061C45.2849 260.362 45.5286 260.601 45.8332 260.726C47.6286 261.471 49.5903 261.724 51.516 261.458C52.7021 263.013 54.2757 264.228 56.0793 264.984C56.2258 265.044 56.383 265.074 56.5414 265.072C56.6998 265.071 56.8564 265.037 57.0017 264.974C57.147 264.911 57.2783 264.82 57.3877 264.705C57.4971 264.59 57.5824 264.455 57.6386 264.307C57.7557 263.999 57.748 263.658 57.617 263.356C57.4861 263.055 57.2423 262.816 56.9378 262.691C55.8828 262.248 54.9282 261.596 54.1311 260.775C56.4935 259.838 58.4574 258.11 59.6874 255.886L60.3188 256.149C60.6184 256.273 60.9552 256.273 61.255 256.15C61.5549 256.026 61.7933 255.788 61.9177 255.488C62.0422 255.189 62.0426 254.852 61.9188 254.552C61.795 254.252 61.5572 254.014 61.2576 253.89Z" fill="white"/>
<path d="M144.88 221.16H139.06L138.06 224H135.68L140.66 210.08H143.3L148.28 224H145.88L144.88 221.16ZM144.24 219.3L141.98 212.84L139.7 219.3H144.24ZM152.725 210.1V224H150.445V210.1H152.725Z" fill="white"/>
<path d="M270.932 115.494C274.68 113.147 277.703 109.805 279.664 105.842C281.636 101.883 282.471 97.4542 282.075 93.0493L282.073 93.0247C281.706 88.9368 280.297 85.0112 277.981 81.623C275.664 78.2349 272.517 75.4975 268.841 73.6723C265.165 71.8471 261.082 70.9952 256.983 71.1979C252.883 71.4007 248.904 72.6513 245.426 74.8303L245.405 74.8434C241.661 77.1955 238.639 80.536 236.673 84.4965C234.706 88.457 233.872 92.8837 234.262 97.2882L234.264 97.3135C234.631 101.401 236.04 105.327 238.357 108.715C240.673 112.103 243.82 114.84 247.496 116.665C251.172 118.49 255.255 119.342 259.355 119.14C263.454 118.937 267.433 117.686 270.911 115.507L270.932 115.494ZM252.073 114.345C251.467 114.537 250.834 114.628 250.198 114.616C249.676 114.607 249.163 114.482 248.695 114.249C248.227 114.017 247.817 113.684 247.494 113.273C246.763 112.287 246.291 111.133 246.121 109.917C245.763 107.456 245.836 104.951 246.336 102.515C248.59 103.466 250.813 104.484 253.005 105.569C255.195 106.656 257.35 107.812 259.47 109.035C258.605 109.986 257.674 110.874 256.683 111.693C255.331 112.865 253.766 113.765 252.073 114.345ZM238.53 86.924L247.201 91.2287C246.056 93.6761 245.122 96.2165 244.408 98.8223C241.934 97.8542 239.428 96.9671 236.889 96.161C236.738 92.9979 237.299 89.8414 238.53 86.924ZM246.095 77.6178C248.271 79.1532 250.493 80.614 252.763 82C251.118 84.1433 249.658 86.4228 248.401 88.8139L239.729 84.5088C241.309 81.7644 243.484 79.4095 246.095 77.6178ZM264.264 75.9928C264.87 75.8009 265.503 75.7093 266.139 75.7218C266.661 75.7308 267.174 75.8559 267.642 76.0881C268.11 76.3203 268.52 76.6537 268.842 77.0641C269.573 78.0505 270.046 79.2045 270.216 80.4205C270.574 82.8818 270.501 85.3866 270.001 87.823C267.747 86.872 265.524 85.8538 263.332 84.7685C261.142 83.6812 258.987 82.5257 256.867 81.3023C257.732 80.3514 258.663 79.4633 259.654 78.6447C261.006 77.4726 262.571 76.5722 264.264 75.9928ZM277.807 103.414L269.136 99.1088C270.281 96.6614 271.215 94.1211 271.929 91.5153C274.403 92.4833 276.909 93.3704 279.448 94.1766C279.599 97.3396 279.038 100.496 277.807 103.414ZM246.93 99.8405C247.605 97.2953 248.504 94.8149 249.617 92.4284L265.521 100.325C264.293 102.654 262.861 104.87 261.242 106.947C258.937 105.607 256.591 104.343 254.204 103.154C251.818 101.969 249.393 100.865 246.93 99.8405ZM269.407 90.4971C268.732 93.0422 267.833 95.5226 266.72 97.9092L250.816 90.0131C252.044 87.6837 253.476 85.4678 255.095 83.3912C257.401 84.7308 259.747 85.9951 262.133 87.1841C264.52 88.3688 266.944 89.4731 269.407 90.4968L269.407 90.4971ZM267.936 101.524L276.608 105.829C275.028 108.573 272.853 110.928 270.242 112.72C268.066 111.184 265.843 109.723 263.574 108.338C265.219 106.194 266.679 103.915 267.936 101.524ZM279.104 91.235C276.895 90.509 274.711 89.7182 272.552 88.8626C272.868 87.2903 273.061 85.6957 273.128 84.0933C273.195 82.6209 273.091 81.1458 272.818 79.6973C276.077 82.7847 278.277 86.8228 279.104 91.235ZM251.375 74.9781C254.676 73.8656 258.2 73.5799 261.637 74.146C261.562 74.1824 261.488 74.2154 261.414 74.2527C258.785 75.6985 256.443 77.6128 254.502 79.9011C252.516 78.6963 250.564 77.4339 248.647 76.114C249.529 75.6732 250.441 75.2936 251.375 74.9781ZM237.234 99.1028C239.442 99.8286 241.626 100.619 243.785 101.475C243.469 103.048 243.276 104.642 243.209 106.244C243.143 107.717 243.247 109.192 243.519 110.641C240.261 107.553 238.061 103.515 237.234 99.1028ZM264.963 115.36C261.662 116.472 258.138 116.758 254.701 116.192C254.776 116.156 254.85 116.123 254.924 116.085C257.553 114.639 259.895 112.725 261.836 110.437C263.822 111.642 265.774 112.904 267.691 114.224C266.808 114.665 265.897 115.044 264.963 115.36Z" fill="white"/>
<path d="M39.7511 21.62C39.9804 21.6908 40.1505 21.8313 40.2614 22.0414C40.3723 22.2516 40.3912 22.4751 40.318 22.712C40.2447 22.949 40.1031 23.1229 39.8929 23.2338C39.6828 23.3447 39.4631 23.3647 39.2338 23.2938C38.9969 23.2206 38.823 23.0789 38.7121 22.8688C38.6011 22.6587 38.5823 22.4352 38.6555 22.1982C38.7288 21.9613 38.8704 21.7874 39.0806 21.6765C39.2907 21.5656 39.5142 21.5467 39.7511 21.62ZM38.3975 23.9272L39.4867 24.2638L37.9173 29.8703L36.53 29.4416L38.3975 23.9272ZM49.2653 22.9527L46.8027 30.9208L45.4957 30.5169L46.5729 27.0315L42.8238 25.8729L41.7467 29.3582L40.4397 28.9543L42.9023 20.9861L44.2093 21.3901L43.1534 24.8066L46.9024 25.9653L47.9583 22.5487L49.2653 22.9527ZM51.2316 32.4026C50.6354 32.2184 50.1379 31.9181 49.7391 31.5017C49.3426 31.0778 49.0823 30.5787 48.9584 30.0045C48.8367 29.4226 48.8763 28.8068 49.0771 28.1572C49.2755 27.5151 49.5929 26.9894 50.0293 26.58C50.4656 26.1706 50.9697 25.9077 51.5415 25.7914C52.1134 25.675 52.7012 25.7102 53.3051 25.8968C53.9089 26.0834 54.414 26.386 54.8205 26.8047C55.227 27.2234 55.4949 27.7249 55.6242 28.3091C55.7534 28.8933 55.7188 29.5064 55.5204 30.1485C55.322 30.7905 55.0008 31.3151 54.5568 31.7221C54.1128 32.1292 53.5961 32.3923 53.0066 32.5116C52.4271 32.6255 51.8354 32.5892 51.2316 32.4026ZM51.5824 31.2676C51.9187 31.3715 52.2569 31.3881 52.5969 31.3174C52.9446 31.249 53.2598 31.0826 53.5424 30.8183C53.8251 30.554 54.0373 30.1925 54.179 29.7339C54.3207 29.2753 54.3521 28.8622 54.2732 28.4945C54.1966 28.1191 54.0379 27.8063 53.7971 27.556C53.5562 27.3058 53.2676 27.1287 52.9313 27.0247C52.595 26.9208 52.2569 26.9042 51.9168 26.9749C51.5844 27.048 51.2845 27.2191 51.0171 27.4882C50.7521 27.7496 50.5488 28.1096 50.407 28.5682C50.1968 29.2484 50.2058 29.829 50.434 30.3098C50.6722 30.7853 51.055 31.1046 51.5824 31.2676ZM59.7635 25.632L57.1415 34.1161L55.8345 33.7121L58.4565 25.2281L59.7635 25.632ZM59.4069 31.3245C59.6029 30.6901 59.9065 30.1685 60.3175 29.7596C60.7362 29.3531 61.2124 29.0858 61.746 28.9576C62.2897 28.8242 62.8366 28.8425 63.387 29.0126C63.8838 29.1662 64.2849 29.399 64.5904 29.7111C64.9058 30.0179 65.1295 30.3508 65.2614 30.7098L65.5449 29.7926L66.8633 30.2001L64.911 36.5172L63.5925 36.1098L63.8831 35.1696C63.5693 35.3992 63.1906 35.5543 62.747 35.6349C62.3034 35.7156 61.8371 35.6803 61.3479 35.5291C60.8052 35.3614 60.3509 35.0703 59.985 34.6557C59.6215 34.2336 59.3827 33.7327 59.2687 33.1532C59.1648 32.5685 59.2108 31.9589 59.4069 31.3245ZM64.5705 32.9454C64.7051 32.5098 64.7303 32.1031 64.6461 31.7254C64.5695 31.35 64.412 31.0334 64.1735 30.7755C63.935 30.5176 63.6476 30.3366 63.3113 30.2327C62.975 30.1288 62.6357 30.116 62.2932 30.1944C61.9532 30.2651 61.6418 30.4327 61.3592 30.697C61.0865 30.956 60.8829 31.3034 60.7483 31.739C60.6136 32.1747 60.5834 32.584 60.6576 32.967C60.7395 33.3524 60.8985 33.6778 61.1346 33.9434C61.3807 34.2037 61.6681 34.3846 61.9968 34.4862C62.3331 34.5901 62.6724 34.6029 63.0148 34.5245C63.3573 34.4461 63.666 34.2736 63.941 34.0069C64.226 33.7349 64.4358 33.3811 64.5705 32.9454ZM70.7298 29.5863L68.8622 35.1008L67.7731 34.7642L69.3425 29.1576L70.7298 29.5863ZM67.5889 37.4328C67.3519 37.3595 67.178 37.2179 67.0671 37.0078C66.9562 36.7976 66.9374 36.5741 67.0106 36.3372C67.0838 36.1002 67.2255 35.9263 67.4356 35.8154C67.6457 35.7045 67.8692 35.6857 68.1062 35.7589C68.3355 35.8298 68.5056 35.9702 68.6165 36.1804C68.7274 36.3905 68.7462 36.614 68.673 36.8509C68.5998 37.0879 68.4581 37.2618 68.248 37.3727C68.0379 37.4836 67.8182 37.5036 67.5889 37.4328Z" fill="black"/>
<path d="M361.089 205.673C360.516 206.327 359.846 207.205 359.153 208.2C358.495 209.145 357.861 210.181 357.446 210.944L356.638 210.382C357.056 209.678 357.734 208.557 358.365 207.651C359.051 206.666 359.681 205.847 360.292 205.117L361.089 205.673ZM356.847 203.302C356.545 202.916 356.236 202.584 355.871 202.33C355.113 201.802 354.066 202.213 352.969 203.789C352.029 205.137 351.292 206.51 351.007 207.423L350.153 206.843C350.46 206.004 351.183 204.651 352.157 203.253C353.55 201.254 355.009 200.545 356.25 201.409C356.762 201.766 357.149 202.197 357.481 202.56L356.847 203.302ZM352.486 218.882C352.43 218.711 352.335 218.469 352.223 218.231C351.852 217.314 350.849 215.27 350.244 214.102C350.338 214.87 350.168 215.512 349.839 215.985C349.379 216.644 348.627 216.822 347.828 216.31C347.234 215.925 346.499 215.384 345.989 215.087C345.476 214.773 345.027 214.957 344.732 215.381C343.963 216.483 344.869 218.08 345.751 219.06L344.76 219.349C343.538 217.723 343.012 216.128 344.006 214.7C344.74 213.646 345.64 213.761 346.242 214.137C346.843 214.512 347.595 215.05 348.157 215.398C348.594 215.673 349.038 215.602 349.347 215.159C349.895 214.371 349.609 213.061 349.092 212.144C348.724 211.435 347.84 210.205 347.454 209.731L348.339 209.09C349.827 211.194 352.362 216.163 352.93 217.363C353.091 217.636 353.238 217.929 353.451 218.253L352.486 218.882ZM345.598 227.362C344.663 228.305 343.31 230.331 342.778 231.409L341.981 230.853C342.597 229.718 343.927 227.808 344.793 226.817L345.598 227.362ZM341.313 224.948C341.02 224.612 340.779 224.371 340.513 224.186C340.06 223.87 339.397 223.876 338.458 225.225C337.847 226.102 337.391 226.924 337.029 227.842L336.188 227.286C336.486 226.586 336.983 225.704 337.697 224.68C338.842 223.036 339.908 222.682 340.834 223.327C341.158 223.553 341.479 223.849 341.876 224.287L341.313 224.948ZM347.659 226.02C347.533 225.844 347.273 225.546 347.123 225.383C346.338 224.558 344.798 223.032 343.685 222.257C343.212 221.927 342.778 221.669 342.255 221.392C342.581 221.868 343.014 222.506 343.301 222.954L342.688 223.142C342.161 222.408 341.381 221.324 340.97 220.906C340.852 220.78 340.679 220.63 340.561 220.548C340.456 220.489 340.311 220.403 340.196 220.337L340.634 219.604C341.47 219.894 342.719 220.516 344.058 221.449C345.505 222.457 346.962 223.955 347.697 224.642C347.903 224.83 348.129 225.031 348.339 225.192L347.659 226.02ZM340.021 237.634C339.81 237.37 339.539 237.108 339.324 236.871C338.632 236.184 337.006 234.466 336.324 233.494C336.328 234.769 335.957 235.826 335.243 236.85C334.152 238.416 332.717 238.776 331.565 237.973C329.507 236.54 330.21 233.914 332.611 231.141L333.542 231.483C331.636 233.547 330.483 236.02 332.108 237.152C332.836 237.66 333.826 237.457 334.629 236.305C335.445 235.134 335.803 233.759 335.478 232.568C335.412 232.347 335.336 232.162 335.237 231.947L336.001 231.397C336.947 233.167 339.025 235.39 339.888 236.167C340.175 236.426 340.398 236.61 340.678 236.775L340.021 237.634ZM340.894 233.694C340.442 234.154 339.851 234.854 339.44 235.445C338.562 236.705 337.358 238.748 336.626 240.534L335.854 240.025C336.582 238.456 337.784 236.31 338.724 234.961C339.191 234.292 339.679 233.696 340.119 233.169L340.894 233.694ZM331.442 245.917C330.992 246.437 330.592 246.948 330.187 247.529C329.364 248.711 328.609 249.983 328.123 251.122L327.365 250.594C327.915 249.427 328.673 248.17 329.475 247.018C329.873 246.447 330.25 245.949 330.687 245.405L331.442 245.917ZM330.804 250.591C330.627 250.424 330.434 250.26 330.254 250.12C329.903 249.847 329.211 249.35 328.63 248.945C327.114 247.889 325.475 246.966 324.461 246.26C323.654 245.697 323.127 244.774 324.053 243.445C324.972 242.126 326.004 241.777 326.89 242.395C327.718 242.971 327.86 244.152 326.954 245.452C325.802 247.106 324.162 247.675 322.838 247.981L322.483 247.105C324.168 246.743 325.53 246.215 326.402 244.965C326.916 244.226 326.948 243.488 326.475 243.159C325.963 242.802 325.361 243.099 324.861 243.818C324.284 244.645 324.533 245.169 325.193 245.629C325.902 246.123 327.832 247.278 329.132 248.183C329.811 248.656 330.438 249.079 330.783 249.319C330.96 249.442 331.223 249.611 331.421 249.705L330.804 250.591ZM334.116 245.689C334 245.52 333.73 245.215 333.58 245.052C332.802 244.217 331.058 242.564 329.955 241.795C329.473 241.459 329.039 241.201 328.508 240.933C328.851 241.406 329.281 242.071 329.568 242.52L328.971 242.704C328.454 241.977 327.703 240.913 327.289 240.479C327.172 240.353 326.989 240.196 326.874 240.131C326.768 240.072 326.614 239.979 326.508 239.92L326.936 239.18C327.776 239.487 328.989 240.054 330.318 240.98C331.766 241.989 333.413 243.634 334.138 244.314C334.347 244.518 334.589 244.717 334.799 244.877L334.116 245.689ZM320.663 254.041L324.62 256.506L325.813 257.293L325.051 258.386L323.9 257.54L320.217 254.681L320.663 254.041ZM318.014 252.679C318.261 252.324 318.706 252.21 319.1 252.485C319.494 252.759 319.561 253.23 319.314 253.584C319.074 253.929 318.609 254.029 318.215 253.755C317.821 253.48 317.774 253.023 318.014 252.679Z" fill="black"/>
</svg>
