<svg width="119" height="145" viewBox="0 0 119 145" fill="none" xmlns="http://www.w3.org/2000/svg">
<path d="M53.5191 144.179C83.077 144.179 107.038 120.218 107.038 90.66C107.038 61.1022 83.077 37.1409 53.5191 37.1409C23.9613 37.1409 0 61.1022 0 90.66C0 120.218 23.9613 144.179 53.5191 144.179Z" fill="#CCCCCC"/>
<path d="M29.2391 61.8434C22.9925 60.37 16.2481 58.3876 11.7927 53.4695C7.9998 49.2828 6.22092 42.8214 9.58191 37.8578C12.6509 33.3255 18.7044 31.6625 23.7996 30.8126C29.7218 29.8247 35.808 29.6804 41.3654 27.1599C44.0937 25.9258 46.4748 24.0366 48.2971 21.6603C49.9888 19.285 51.457 16.7581 52.6831 14.1122C53.8449 11.5334 55.3973 9.14914 57.2855 7.04327C59.4324 4.9407 62.2016 3.58867 65.1799 3.18891C71.8844 2.1699 78.2496 5.26831 83.525 9.11606C88.6336 12.9154 93.2683 17.3134 97.3299 22.216C106.553 33.2072 112.901 46.3169 115.806 60.368C116.196 62.2575 119.088 61.4579 118.698 59.5705C115.921 46.2732 110.153 33.7829 101.83 23.0469C97.7081 17.6938 92.9734 12.8419 87.7228 8.5903C82.2866 4.21108 76.0102 0.394549 68.8602 0.0328991C65.5539 -0.159702 62.2533 0.495716 59.2714 1.93692C56.5313 3.38128 54.2251 5.52911 52.5898 8.15976C49.2209 13.2691 47.5958 19.8714 42.1607 23.3275C36.6554 26.8283 29.7625 26.8628 23.5175 27.8369C17.9628 28.7032 11.7787 30.533 8.01837 34.9939C3.85896 39.9281 4.01542 46.6522 7.12219 52.0941C10.5742 58.1407 16.9877 61.4405 23.4285 63.4078C25.0825 63.913 26.7586 64.3392 28.4415 64.7362C30.3191 65.179 31.1204 62.2871 29.2391 61.8434Z" fill="#2F2E41"/>
<path d="M51.2344 108.529L51.1787 106.529C54.8994 106.426 58.1797 106.192 60.6445 104.391C61.3433 103.852 61.9177 103.168 62.3286 102.387C62.7395 101.605 62.9774 100.745 63.0259 99.8632C63.0692 99.3245 62.9877 98.7832 62.7877 98.2812C62.5878 97.7791 62.2748 97.33 61.873 96.9686C60.2368 95.5868 57.604 96.0341 55.685 96.9139L54.0302 97.6727L57.2036 74.4823L59.185 74.7538L56.4858 94.4803C59.0932 93.7137 61.5092 94.0438 63.164 95.4413C63.7994 95.996 64.2979 96.6901 64.6207 97.4694C64.9434 98.2486 65.0815 99.092 65.0244 99.9335C64.966 101.118 64.6493 102.275 64.0965 103.324C63.5437 104.373 62.7681 105.289 61.8242 106.007C58.6572 108.321 54.5415 108.436 51.2344 108.529Z" fill="#2F2E41"/>
<path d="M79.7559 76.455H68.9844V78.455H79.7559V76.455Z" fill="#2F2E41"/>
<path d="M45.7559 76.455H34.9844V78.455H45.7559V76.455Z" fill="#2F2E41"/>
</svg>
