<svg width="210" height="279" viewBox="0 0 210 279" fill="none" xmlns="http://www.w3.org/2000/svg">
<path d="M85.3689 30.4642C82.2919 29.7384 78.9696 28.7619 76.7748 26.3392C74.9064 24.2768 74.0302 21.0939 75.6858 18.6488C77.1976 16.4162 80.1796 15.597 82.6894 15.1783C85.6068 14.6917 88.6048 14.6206 91.3424 13.379C92.6864 12.7711 93.8593 11.8405 94.7569 10.6699C95.5903 9.49981 96.3136 8.25509 96.9175 6.95169C97.4898 5.68139 98.2545 4.50688 99.1847 3.46953C100.242 2.4338 101.606 1.76779 103.073 1.57086C106.376 1.0689 109.512 2.59518 112.11 4.49059C114.627 6.36215 116.91 8.52863 118.911 10.9436C123.454 16.3579 126.581 22.8158 128.012 29.7374C128.204 30.6682 129.629 30.2743 129.437 29.3445C128.069 22.7943 125.227 16.6415 121.127 11.353C119.097 8.71602 116.765 6.32595 114.178 4.2316C111.5 2.07439 108.409 0.194356 104.886 0.0162062C103.258 -0.0786693 101.632 0.244191 100.163 0.954131C98.8131 1.66562 97.6771 2.72365 96.8716 4.01951C95.212 6.53636 94.4115 9.7887 91.7342 11.4912C89.0223 13.2157 85.6268 13.2327 82.5505 13.7125C79.8142 14.1393 76.7679 15.0406 74.9156 17.238C72.8667 19.6687 72.9437 22.981 74.4741 25.6616C76.1746 28.6402 79.3339 30.2657 82.5067 31.2348C83.3214 31.4837 84.1471 31.6936 84.9761 31.8892C85.901 32.1073 86.2957 30.6828 85.3689 30.4642Z" fill="white"/>
<path d="M59.024 205.903C65.5693 210.134 73.1409 212.507 80.9301 212.77C80.791 213.099 80.6348 213.422 80.4621 213.735C79.5554 215.409 78.2741 216.85 76.7182 217.947C74.8761 219.243 72.7132 220.009 70.4656 220.16C68.218 220.312 65.972 219.843 63.9727 218.805C61.9733 217.767 60.2973 216.2 59.1276 214.275C57.9579 212.35 57.3393 210.141 57.3394 207.888V205.903H59.024Z" fill="white"/>
<path d="M104.969 206.484V207.888C104.97 210.621 104.06 213.277 102.383 215.435C100.707 217.594 98.3586 219.132 95.7101 219.807C93.0616 220.482 90.2636 220.256 87.7583 219.163C85.2529 218.071 83.183 216.175 81.8755 213.774C81.6953 213.453 81.5324 213.123 81.3877 212.784C81.7473 212.794 82.1021 212.799 82.4617 212.799C90.4026 212.808 98.1916 210.623 104.969 206.484Z" fill="white"/>
<path d="M121.54 58.0236C121.171 57.9694 120.796 57.9349 120.422 57.9103C124.676 67.7145 124.971 78.7846 121.244 88.8013C121.619 88.757 121.988 88.6979 122.358 88.6289C125.965 87.9299 129.208 85.9734 131.508 83.1077C133.808 80.242 135.017 76.653 134.918 72.9797C134.82 69.3064 133.422 65.7871 130.972 63.0483C128.522 60.3095 125.18 58.5289 121.54 58.0236Z" fill="white"/>
<path d="M44.5022 57.9103C44.1279 57.9349 43.7534 57.9694 43.384 58.0236C39.7442 58.5289 36.4019 60.3095 33.9521 63.0483C31.5022 65.7871 30.1037 69.3064 30.0055 72.9797C29.9074 76.653 31.116 80.242 33.4161 83.1077C35.7162 85.9734 38.9586 87.9299 42.5662 88.6289C42.9356 88.6979 43.3051 88.757 43.6796 88.8013C39.9533 78.7846 40.2481 67.7145 44.5022 57.9103Z" fill="white"/>
<path d="M121.54 58.0236C117.482 48.3291 109.965 40.4892 100.45 36.027C90.9348 31.5648 80.1005 30.799 70.0521 33.8782C60.0038 36.9574 51.4587 43.6618 46.0771 52.689C40.6954 61.7162 38.8615 72.4215 40.9315 82.7252C43.0016 93.0289 48.8277 102.195 57.2782 108.444C65.7287 114.692 76.2001 117.576 86.6581 116.535C97.116 115.495 106.814 110.604 113.867 102.813C120.921 95.0222 124.827 84.8875 124.826 74.3779C124.824 68.7627 123.707 63.2038 121.54 58.0236ZM121.245 88.8013C117.641 98.4878 110.543 106.475 101.346 111.19C92.1494 115.905 81.5208 117.007 71.5523 114.279C61.5838 111.552 52.9974 105.191 47.483 96.4502C41.9687 87.7092 39.9259 77.2208 41.7566 67.0492C43.5874 56.8776 49.1591 47.7597 57.3751 41.49C65.5912 35.2203 75.8564 32.253 86.1505 33.1721C96.4446 34.0911 106.022 38.8301 112.997 46.4561C119.973 54.0821 123.841 64.0429 123.841 74.3779C123.839 79.3018 122.96 84.1859 121.245 88.8013Z" fill="white"/>
<path d="M104.136 64.7722H60.7875C58.5012 64.7722 56.3085 65.6805 54.6919 67.2971C53.0752 68.9138 52.167 71.1064 52.167 73.3927C52.167 75.6791 53.0752 77.8717 54.6919 79.4884C56.3085 81.105 58.5012 82.0133 60.7875 82.0133H104.136C106.423 82.0133 108.615 81.105 110.232 79.4884C111.849 77.8717 112.757 75.6791 112.757 73.3927C112.757 71.1064 111.849 68.9138 110.232 67.2971C108.615 65.6805 106.423 64.7722 104.136 64.7722Z" fill="white"/>
<path d="M147.81 110.018L123.502 125.722C122.22 126.55 121.483 128.108 121.454 130.051C121.425 131.995 122.105 134.166 123.346 136.086C124.587 138.006 126.286 139.519 128.07 140.291C129.854 141.064 131.576 141.032 132.858 140.204L157.166 124.499C158.448 123.671 159.184 122.114 159.214 120.17C159.243 118.227 158.562 116.056 157.322 114.135C156.081 112.215 154.382 110.702 152.598 109.93C150.814 109.158 149.092 109.189 147.81 110.018Z" fill="white"/>
<path d="M82.4618 125.116C70.8808 125.121 59.7616 129.658 51.4826 137.756C43.2035 145.854 38.422 156.87 38.1607 168.448C37.8994 180.026 42.1791 191.247 50.0844 199.71C57.9896 208.173 68.8928 213.207 80.4618 213.735C80.9299 213.76 81.4027 213.774 81.8756 213.774C82.0726 213.784 82.2648 213.784 82.4618 213.784C94.2199 213.784 105.496 209.113 113.811 200.799C122.125 192.485 126.796 181.208 126.796 169.45C126.796 157.692 122.125 146.415 113.811 138.101C105.496 129.787 94.2199 125.116 82.4618 125.116ZM104.969 206.484C98.1917 210.623 90.4027 212.808 82.4618 212.799C82.1022 212.799 81.7474 212.794 81.3878 212.784C81.2351 212.784 81.0824 212.779 80.9299 212.769C70.5203 212.408 60.5886 208.312 52.9499 201.231C45.3111 194.15 40.4756 184.557 39.3269 174.205C38.1783 163.852 40.7933 153.432 46.694 144.849C52.5947 136.266 61.3871 130.093 71.4641 127.458C81.5412 124.823 92.2299 125.903 101.577 130.499C110.924 135.095 118.304 142.901 122.37 152.491C126.436 162.08 126.915 172.813 123.72 182.727C120.525 192.64 113.869 201.073 104.969 206.484Z" fill="white"/>
<path d="M113.578 158.531H94.2026C92.8526 158.531 91.5578 157.995 90.6032 157.04C89.6486 156.085 89.1123 154.791 89.1123 153.441C89.1123 152.091 89.6486 150.796 90.6032 149.841C91.5578 148.887 92.8526 148.35 94.2026 148.35H113.578C114.928 148.35 116.223 148.887 117.178 149.841C118.132 150.796 118.669 152.091 118.669 153.441C118.669 154.791 118.132 156.085 117.178 157.04C116.223 157.995 114.928 158.531 113.578 158.531Z" fill="#3F3D56"/>
<path d="M95.4946 156.024C96.9213 156.024 98.078 154.867 98.078 153.441C98.078 152.014 96.9213 150.857 95.4946 150.857C94.0678 150.857 92.9111 152.014 92.9111 153.441C92.9111 154.867 94.0678 156.024 95.4946 156.024Z" fill="#F2F2F2"/>
<path d="M103.891 156.024C105.317 156.024 106.474 154.867 106.474 153.441C106.474 152.014 105.317 150.857 103.891 150.857C102.464 150.857 101.307 152.014 101.307 153.441C101.307 154.867 102.464 156.024 103.891 156.024Z" fill="#F2F2F2"/>
<path d="M112.287 156.024C113.713 156.024 114.87 154.867 114.87 153.441C114.87 152.014 113.713 150.857 112.287 150.857C110.86 150.857 109.703 152.014 109.703 153.441C109.703 154.867 110.86 156.024 112.287 156.024Z" fill="#6C63FF"/>
<g filter="url(#filter0_f_129_1283)">
<ellipse cx="66.5" cy="8" rx="66.5" ry="8" transform="matrix(1 0 0 -1 20 259)" fill="white" fill-opacity="0.29"/>
</g>
<g clip-path="url(#clip0_129_1283)">
<path d="M209.482 79.4298C208.444 79.2413 207.438 78.9844 206.492 78.6663C199.559 76.3348 195.639 70.6701 194.35 63.3778C194.227 62.6869 193.231 62.6868 193.108 63.3778C191.61 71.8515 186.622 77.8439 178.019 79.4406C177.335 79.5676 177.335 80.5535 178.019 80.6802C186.543 82.2568 191.618 88.2378 193.112 96.6439C193.206 97.1735 193.765 97.1763 193.733 97.164C193.881 97.1638 194.024 97.1114 194.138 97.0161C194.251 96.9207 194.327 96.7885 194.353 96.6426C195.113 92.3077 197.248 86.4183 203.101 82.9798C204.971 81.8823 207.119 81.1053 209.484 80.6701C209.629 80.6435 209.76 80.5668 209.855 80.4534C209.949 80.3399 210.001 80.197 210.001 80.0494C210 79.9018 209.948 79.7589 209.854 79.6457C209.759 79.5325 209.628 79.4561 209.482 79.4298Z" fill="#F4A32C"/>
<path d="M209.482 79.4298C208.444 79.2413 207.438 78.9844 206.492 78.6663C199.559 76.3348 195.639 70.6701 194.35 63.3778C194.227 62.6869 193.231 62.6868 193.108 63.3778C191.61 71.8515 186.622 77.8439 178.019 79.4406C177.335 79.5676 177.335 80.5535 178.019 80.6802C186.543 82.2568 191.618 88.2378 193.112 96.6439C193.206 97.1735 193.765 97.1763 193.733 97.164C193.881 97.1638 194.024 97.1114 194.138 97.0161C194.251 96.9207 194.327 96.7885 194.353 96.6426C195.113 92.3077 197.248 86.4183 203.101 82.9798C204.971 81.8823 207.119 81.1053 209.484 80.6701C209.629 80.6435 209.76 80.5668 209.855 80.4534C209.949 80.3399 210.001 80.197 210.001 80.0494C210 79.9018 209.948 79.7589 209.854 79.6457C209.759 79.5325 209.628 79.4561 209.482 79.4298Z" fill="white"/>
<path d="M184.606 76.985C182.586 78.2198 180.347 79.0085 178.019 79.4405C177.335 79.5675 177.335 80.5535 178.019 80.6801C186.543 82.2567 191.618 88.2378 193.112 96.6439C193.206 97.1735 193.765 97.1762 193.733 97.1639C193.881 97.1637 194.024 97.1113 194.138 97.016C194.251 96.9207 194.327 96.7884 194.353 96.6425C194.774 94.2428 195.618 91.3671 197.279 88.6942C195.025 82.4233 190.72 78.5198 184.606 76.985Z" fill="#DADADA"/>
<path d="M181.793 95.7824C179.34 94.969 177.718 93.1413 176.929 90.6153C176.787 90.1618 176.309 90.1668 176.327 90.1731C176.193 90.1731 176.062 90.2159 175.954 90.2954C175.846 90.3749 175.766 90.4868 175.725 90.6149C174.961 93.0563 173.36 94.9242 170.861 95.7799C170.295 95.9738 170.294 96.7784 170.861 96.9726C173.344 97.8225 174.955 99.6756 175.726 102.14C175.868 102.595 176.346 102.588 176.329 102.582C176.463 102.582 176.594 102.539 176.702 102.459C176.811 102.379 176.89 102.266 176.93 102.138C177.5 100.293 178.507 98.867 179.921 97.8987L179.921 97.8986C181.467 96.8394 182.226 97.1467 182.225 96.3797C182.225 96.2474 182.183 96.1185 182.105 96.0113C182.028 95.9041 181.918 95.824 181.793 95.7824Z" fill="white"/>
<path d="M173.375 94.4143C173.357 94.4082 173.34 94.3997 173.323 94.3922C172.598 95.0152 171.766 95.4702 170.861 95.7799C170.295 95.9739 170.295 96.7785 170.862 96.9726C173.344 97.8226 174.955 99.6757 175.727 102.14C175.869 102.595 176.346 102.588 176.329 102.582C177.217 102.581 176.745 101.52 178.224 99.5346C177.437 97.0646 175.817 95.2504 173.375 94.4143Z" fill="#DADADA"/>
<path d="M173.358 67.0272C170.896 66.2106 169.281 64.3758 168.494 61.8601C168.352 61.4066 167.874 61.4116 167.892 61.4178C167.758 61.4178 167.627 61.4607 167.519 61.5402C167.411 61.6196 167.331 61.7316 167.291 61.8597C166.528 64.296 164.93 66.167 162.426 67.0247C161.86 67.2187 161.86 68.0233 162.427 68.2174C164.915 69.0695 166.522 70.9271 167.292 73.3849C167.434 73.8394 167.911 73.8329 167.894 73.827C168.029 73.8267 168.16 73.7835 168.268 73.7036C168.376 73.6238 168.456 73.5114 168.495 73.383C169.44 70.3289 171.341 69.2869 171.486 69.1436C173.028 68.0872 173.791 68.3876 173.79 67.6247C173.79 67.4923 173.748 67.3634 173.671 67.2562C173.593 67.149 173.484 67.0689 173.358 67.0272Z" fill="white"/>
<path d="M164.696 65.7949C162.958 67.1842 162 66.7958 162 67.6211C162 67.7525 162.041 67.8806 162.117 67.9876C162.194 68.0945 162.302 68.1748 162.426 68.2173C164.915 69.0694 166.522 70.927 167.291 73.3848C167.434 73.8393 167.911 73.8328 167.894 73.8269C168.737 73.8254 168.332 72.8407 169.67 70.9405C168.293 66.6879 165.007 65.9984 164.696 65.7949Z" fill="#DADADA"/>
</g>
<defs>
<filter id="filter0_f_129_1283" x="0" y="223" width="173" height="56" filterUnits="userSpaceOnUse" color-interpolation-filters="sRGB">
<feFlood flood-opacity="0" result="BackgroundImageFix"/>
<feBlend mode="normal" in="SourceGraphic" in2="BackgroundImageFix" result="shape"/>
<feGaussianBlur stdDeviation="10" result="effect1_foregroundBlur_129_1283"/>
</filter>
<clipPath id="clip0_129_1283">
<rect width="48" height="48" fill="white" transform="translate(162 58)"/>
</clipPath>
</defs>
</svg>
