<svg width="24" height="24" viewBox="0 0 24 24" fill="none" xmlns="http://www.w3.org/2000/svg">
<path d="M17.8082 8.55876L16.4815 5.58751C16.3877 5.37566 16.2529 5.18451 16.0848 5.02513C15.9166 4.86575 15.7185 4.74131 15.502 4.65901C15.2859 4.57548 15.0554 4.53564 14.8238 4.54182C14.5921 4.548 14.3641 4.60007 14.1527 4.69501C13.944 4.78816 13.7554 4.92124 13.5977 5.08676L13.3945 4.63076C13.0135 3.77626 12.0085 3.39126 11.1537 3.77176L11.0317 3.82601C10.8585 3.90372 10.6996 4.01014 10.5617 4.14076C10.3534 3.77418 10.0163 3.49813 9.61578 3.36627C9.21529 3.23441 8.78009 3.25615 8.39473 3.42726L8.27273 3.48151C7.86207 3.66518 7.54102 4.00424 7.38003 4.42432C7.21904 4.84439 7.23125 5.31118 7.41398 5.72226L7.46298 5.83226C7.28201 5.84981 7.10506 5.8965 6.93898 5.97051L6.81698 6.02476C6.61312 6.11497 6.42918 6.24472 6.27581 6.4065C6.12244 6.56828 6.00269 6.75888 5.92348 6.96726C5.84309 7.17519 5.80477 7.39702 5.81073 7.61987C5.8167 7.84272 5.86683 8.06218 5.95823 8.26551L7.82848 12.46C7.05073 12.2375 6.18123 12.5 5.66973 13.186C5.01448 14.0655 5.19073 15.3115 6.06048 15.9753C6.28573 16.1708 6.87173 16.6985 7.10623 16.9893C7.90048 17.9745 9.00023 19.2175 10.466 20.0935C11.564 20.7498 12.6715 21.0783 13.779 21.0783C14.6387 21.078 15.4987 20.8803 16.354 20.4838C18.109 19.6708 19.2117 18.6248 19.7255 17.2865C20.3262 15.7213 20.2897 14.0345 19.62 12.5328L17.8082 8.55876ZM18.6572 16.8768C18.2552 17.9238 17.3445 18.7643 15.8727 19.4463C13.2685 20.653 10.6922 19.6148 7.99673 16.2715C7.65023 15.842 6.76223 15.072 6.76223 15.072C6.5798 14.9357 6.45887 14.7326 6.42597 14.5073C6.39307 14.282 6.45088 14.0528 6.58673 13.87C6.72311 13.6877 6.92618 13.5668 7.15148 13.5339C7.37677 13.5011 7.60592 13.5588 7.78873 13.6945L10.6172 15.6788C10.6787 15.7225 10.7482 15.7536 10.8217 15.7704C10.8953 15.7871 10.9714 15.7891 11.0458 15.7764C11.1201 15.7636 11.1912 15.7362 11.2549 15.6958C11.3186 15.6555 11.3737 15.6029 11.417 15.5411C11.4603 15.4794 11.491 15.4097 11.5073 15.336C11.5236 15.2624 11.5251 15.1862 11.5118 15.112C11.4986 15.0377 11.4707 14.9669 11.43 14.9034C11.3892 14.8399 11.3363 14.7852 11.2742 14.7423L9.56298 13.5418L7.00298 7.80001C6.97329 7.73374 6.957 7.66224 6.95507 7.58964C6.95314 7.51704 6.9656 7.44477 6.99173 7.37701C7.01758 7.30917 7.05659 7.24711 7.10654 7.19442C7.15648 7.14173 7.21637 7.09944 7.28273 7.07001L7.40473 7.01576C7.47096 6.98589 7.54248 6.96951 7.6151 6.96758C7.68773 6.96564 7.76001 6.9782 7.82773 7.00451C7.96548 7.05726 8.07473 7.16076 8.13473 7.29551L10.261 12.0645C10.3228 12.2031 10.4371 12.3114 10.5788 12.3657C10.7205 12.42 10.8779 12.4158 11.0165 12.354C11.1551 12.2922 11.2634 12.1779 11.3177 12.0362C11.372 11.8945 11.3678 11.7371 11.306 11.5985L8.45898 5.25626C8.39947 5.12234 8.3955 4.97028 8.44794 4.83343C8.50039 4.69658 8.60496 4.58612 8.73873 4.52626L8.86048 4.47201C8.99441 4.4125 9.14647 4.40853 9.28332 4.46097C9.42017 4.51341 9.53063 4.61799 9.59048 4.75176L12.5327 11.3508C12.5946 11.4892 12.7089 11.5974 12.8505 11.6517C12.9921 11.706 13.1494 11.7019 13.288 11.6403C13.3566 11.6097 13.4185 11.5659 13.4702 11.5113C13.5219 11.4568 13.5624 11.3926 13.5892 11.3225C13.6161 11.2523 13.6289 11.1776 13.6269 11.1025C13.6249 11.0273 13.6081 10.9534 13.5775 10.8848L11.2062 5.56601C11.1576 5.43479 11.1606 5.28999 11.2146 5.16088C11.2686 5.03177 11.3696 4.92799 11.4972 4.87051L11.6192 4.81626C11.7532 4.75675 11.9052 4.75278 12.0421 4.80522C12.1789 4.85766 12.2894 4.96224 12.3492 5.09601L14.9287 10.8815C14.9906 11.0199 15.1049 11.1282 15.2465 11.1825C15.3881 11.2367 15.5454 11.2326 15.684 11.171C15.7526 11.1404 15.8145 11.0966 15.8662 11.0421C15.9179 10.9876 15.9584 10.9234 15.9852 10.8532C16.0121 10.7831 16.0249 10.7083 16.0229 10.6332C16.0209 10.5581 16.0041 10.4841 15.9735 10.4155C15.9735 10.4155 14.3372 6.63101 14.3047 6.55751C14.2551 6.44561 14.2397 6.32151 14.2605 6.20087C14.2813 6.08023 14.3373 5.96844 14.4215 5.87959C14.5057 5.79075 14.6144 5.72883 14.7337 5.70163C14.8531 5.67443 14.9778 5.68317 15.0922 5.72676C15.1683 5.7557 15.2379 5.79944 15.2969 5.85544C15.356 5.91144 15.4033 5.97859 15.4362 6.05301L16.6645 8.80751L18.5767 13.003C19.1202 14.2213 19.1487 15.5968 18.6572 16.8768ZM19.0865 3.06451C18.9723 2.96658 18.8242 2.91755 18.6742 2.92803C18.5242 2.9385 18.3843 3.00764 18.2849 3.12048C18.1854 3.23332 18.1345 3.38077 18.1429 3.53093C18.1514 3.68108 18.2187 3.82185 18.3302 3.92276C19.457 4.91695 20.336 6.16056 20.8972 7.55451C20.9242 7.62562 20.9651 7.69064 21.0174 7.74578C21.0698 7.80091 21.1326 7.84506 21.2023 7.87563C21.2719 7.9062 21.3469 7.92259 21.423 7.92383C21.499 7.92508 21.5745 7.91116 21.6451 7.88288C21.7157 7.8546 21.78 7.81254 21.8341 7.75914C21.8883 7.70575 21.9312 7.6421 21.9605 7.57191C21.9898 7.50172 22.0047 7.42641 22.0046 7.35036C22.0044 7.27431 21.9891 7.19907 21.9595 7.12901C21.3313 5.56897 20.3475 4.17718 19.0865 3.06451ZM3.39473 6.82226C3.32427 6.7962 3.24935 6.78429 3.17428 6.7872C3.09921 6.79012 3.02544 6.8078 2.9572 6.83923C2.88897 6.87067 2.82759 6.91525 2.7766 6.97042C2.7256 7.02559 2.68597 7.09027 2.65998 7.16076C2.00558 8.93866 1.83392 10.8582 2.16248 12.724C2.17412 12.7992 2.20066 12.8714 2.24053 12.9363C2.28041 13.0011 2.33283 13.0574 2.39472 13.1017C2.4566 13.146 2.52672 13.1776 2.60095 13.1945C2.67518 13.2114 2.75204 13.2133 2.82703 13.2001C2.90201 13.187 2.97362 13.159 3.03764 13.1178C3.10167 13.0766 3.15683 13.023 3.1999 12.9602C3.24296 12.8975 3.27307 12.8267 3.28845 12.7522C3.30384 12.6776 3.30419 12.6007 3.28948 12.526C2.9957 10.8596 3.14882 9.14519 3.73323 7.55726C3.78573 7.4149 3.77956 7.25752 3.71609 7.11971C3.65262 6.98189 3.53704 6.87491 3.39473 6.82226Z" fill="black"/>
</svg>
