<svg width="24" height="24" viewBox="0 0 24 24" fill="none" xmlns="http://www.w3.org/2000/svg">
<g clip-path="url(#clip0_177_1391)">
<path d="M12.8357 7.64062H12.5638V4.35937C12.5638 4.25658 12.53 4.15665 12.4676 4.07495C12.4052 3.99325 12.3177 3.93433 12.2186 3.90725C12.1194 3.88017 12.0141 3.88643 11.9188 3.92507C11.8236 3.96371 11.7437 4.03259 11.6914 4.12111L11.0346 5.23369C10.903 5.45662 10.977 5.74401 11.1999 5.87564C11.2639 5.91345 11.3359 5.9355 11.41 5.93998C11.4842 5.94445 11.5583 5.93122 11.6263 5.90137V7.64062H11.3545C11.0956 7.64062 10.8857 7.85048 10.8857 8.10937C10.8857 8.36826 11.0956 8.57812 11.3545 8.57812H12.8357C13.0945 8.57812 13.3044 8.36826 13.3044 8.10937C13.3044 7.85048 13.0945 7.64062 12.8357 7.64062ZM7.36204 19.1719H6.34631C6.92897 18.572 7.55461 17.7299 7.55461 16.8801C7.55461 16.0079 6.96857 15.4219 6.09642 15.4219C5.29237 15.4219 4.63818 16.0761 4.63818 16.8801C4.63818 17.139 4.84809 17.3489 5.10693 17.3489C5.36578 17.3489 5.57568 17.139 5.57568 16.8801C5.57568 16.593 5.80926 16.3594 6.09642 16.3594C6.56315 16.3594 6.61711 16.6566 6.61711 16.8801C6.61711 17.7487 5.29284 18.921 4.8292 19.263C4.74968 19.3215 4.69067 19.4036 4.66059 19.4977C4.6305 19.5917 4.63087 19.6929 4.66165 19.7867C4.69243 19.8805 4.75205 19.9622 4.832 20.0202C4.91195 20.0781 5.00815 20.1093 5.10689 20.1094H7.362C7.62084 20.1094 7.83075 19.8995 7.83075 19.6406C7.83075 19.3817 7.62089 19.1719 7.36204 19.1719ZM19.1075 16.8344C19.1075 16.0604 18.4778 15.4306 17.7038 15.4306H16.8927C16.6338 15.4306 16.4239 15.6405 16.4239 15.8994C16.4239 16.1583 16.6338 16.3681 16.8927 16.3681H17.7038C17.9609 16.3681 18.17 16.5772 18.17 16.8344C18.17 17.0681 17.997 17.2616 17.7725 17.295C17.7496 17.2938 17.7267 17.2933 17.7038 17.2932H16.8927C16.6338 17.2932 16.4239 17.5031 16.4239 17.762C16.4239 18.0209 16.6338 18.2307 16.8927 18.2307H17.219C17.2455 18.2355 17.2724 18.2379 17.2993 18.2381H17.7038C17.7268 18.2381 17.7497 18.2374 17.7724 18.2363C17.997 18.2697 18.17 18.4632 18.17 18.6969C18.17 18.954 17.9608 19.1632 17.7038 19.1632H16.8926C16.6338 19.1632 16.4239 19.373 16.4239 19.6319C16.4239 19.8908 16.6338 20.1007 16.8926 20.1007H17.7038C18.4778 20.1007 19.1075 19.4709 19.1075 18.6969C19.1075 18.3398 18.9732 18.0136 18.7528 17.7657C18.9732 17.5177 19.1075 17.1915 19.1075 16.8344Z" fill="black"/>
<path d="M21.6562 11.5312H17.7644C18.0593 11.1392 18.2344 10.6522 18.2344 10.125V8.03123C18.2344 7.77234 18.0245 7.56248 17.7656 7.56248C17.5068 7.56248 17.2969 7.77234 17.2969 8.03123V10.125C17.2969 10.9004 16.666 11.5312 15.8906 11.5312H8.10938C7.33397 11.5312 6.70312 10.9004 6.70312 10.125V2.34375C6.70312 1.56834 7.33397 0.9375 8.10938 0.9375H15.8906C16.666 0.9375 17.2969 1.56834 17.2969 2.34375V4.125C17.2969 4.38389 17.5068 4.59375 17.7656 4.59375C18.0245 4.59375 18.2344 4.38389 18.2344 4.125V2.34375C18.2344 1.05141 17.183 0 15.8906 0H8.10938C6.81703 0 5.76562 1.05141 5.76562 2.34375V10.125C5.76562 10.6522 5.9407 11.1392 6.23564 11.5312H2.34375C1.05141 11.5312 0 12.5827 0 13.875V21.6562C0 22.9486 1.05141 24 2.34375 24H10.125C10.8909 24 11.572 23.6307 12 23.0609C12.428 23.6307 13.1091 24 13.875 24H21.6562C22.9486 24 24 22.9486 24 21.6562V13.875C24 12.5827 22.9486 11.5312 21.6562 11.5312ZM11.5312 21.6562C11.5312 22.4317 10.9004 23.0625 10.125 23.0625H2.34375C1.56834 23.0625 0.9375 22.4317 0.9375 21.6562V13.875C0.9375 13.0996 1.56834 12.4688 2.34375 12.4688H10.125C10.9004 12.4688 11.5312 13.0996 11.5312 13.875V21.6562ZM12 12.4704L11.9987 12.4688H12.0013L12 12.4704ZM23.0625 21.6562C23.0625 22.4317 22.4317 23.0625 21.6562 23.0625H13.875C13.0996 23.0625 12.4688 22.4317 12.4688 21.6562V13.875C12.4688 13.0996 13.0996 12.4688 13.875 12.4688H21.6562C22.4317 12.4688 23.0625 13.0996 23.0625 13.875V21.6562Z" fill="black"/>
<path d="M18.097 5.90297C18.0098 5.81578 17.8889 5.76562 17.7656 5.76562C17.6423 5.76562 17.5214 5.81578 17.4342 5.90297C17.347 5.99016 17.2969 6.11109 17.2969 6.23438C17.2969 6.35766 17.347 6.47859 17.4342 6.56578C17.5215 6.65297 17.6423 6.70312 17.7656 6.70312C17.8889 6.70312 18.0098 6.65297 18.097 6.56578C18.1842 6.47859 18.2344 6.35766 18.2344 6.23438C18.2344 6.11109 18.1842 5.99016 18.097 5.90297Z" fill="black"/>
</g>
<defs>
<clipPath id="clip0_177_1391">
<rect width="24" height="24" fill="white"/>
</clipPath>
</defs>
</svg>
