<svg width="169" height="161" viewBox="0 0 169 161" fill="none" xmlns="http://www.w3.org/2000/svg">
<circle cx="104" cy="95" r="59" fill="#CCCCCC" fill-opacity="0.2"/>
<circle cx="103.41" cy="95.59" r="46.61" fill="#CCCCCC" fill-opacity="0.3"/>
<circle cx="104" cy="95" r="27.14" fill="#CCCCCC" fill-opacity="0.6"/>
<path d="M52.8043 107.047L73.1083 120.845L58.259 147.106C58.259 147.106 51.6187 157.957 40.8662 151.979C38.6968 150.754 36.7985 149.101 35.286 147.121C33.7736 145.141 32.6785 142.874 32.067 140.459L22.8859 105.123C22.8859 105.123 6.49857 98.3586 4.95834 83.5612C4.89218 83.0912 4.91508 82.6129 5.02586 82.1513C5.19597 81.4619 5.5542 80.8333 6.06062 80.3355C5.91525 79.9383 5.80391 79.5294 5.72778 79.1133C5.55692 78.1714 5.39514 77.2482 6.19999 76.5285C6.53484 76.2101 6.97952 76.033 7.44159 76.0339C7.90366 76.0349 8.34758 76.2139 8.68109 76.5337C8.5682 75.5699 8.88598 74.7469 9.49357 74.4157C9.74426 74.2904 10.0268 74.2432 10.3046 74.2801C11.6234 74.4446 12.4696 76.3222 12.711 76.8469C13.7034 78.9678 15.8493 82.5875 19.0429 87.6683C19.0429 87.6683 14.4356 80.4986 17.2431 78.7866C18.0807 78.2773 18.9877 79.1276 19.4821 79.7174C20.3919 80.8045 20.6746 82.2472 21.3237 83.4693C22.1857 85.0071 23.3828 86.3312 24.8263 87.3433C27.0983 89.0014 29.6692 89.969 31.7151 91.9443C32.6451 92.8355 33.4616 93.838 34.146 94.9292C34.9425 96.2198 35.1613 97.6945 35.8392 98.9904L46.3337 118.938L52.8043 107.047Z" fill="white"/>
<path d="M46.4689 154.26C44.4053 154.096 42.4049 153.47 40.6158 152.429C38.3883 151.166 36.4388 149.466 34.8843 147.431C33.3299 145.396 32.2025 143.068 31.5698 140.587L22.4425 105.496C19.4685 104.126 16.6854 102.375 14.1632 100.286C8.44427 95.5677 5.08143 89.7998 4.43528 83.6125C4.35248 83.0045 4.40176 82.3859 4.57974 81.7987C4.75772 81.2115 5.06023 80.6696 5.46664 80.2099C5.36235 79.8808 5.27827 79.5457 5.21489 79.2063C5.04245 78.2489 4.83841 77.0633 5.84882 76.1459C6.15684 75.8617 6.53469 75.6642 6.9439 75.5735C7.35311 75.4828 7.77904 75.5022 8.1783 75.6297C8.21459 75.2882 8.32982 74.9598 8.51489 74.6704C8.69996 74.3811 8.9498 74.1387 9.24465 73.9626C9.58778 73.7856 9.97778 73.7208 10.3597 73.7771C11.9337 73.9735 12.8531 75.9509 13.1559 76.6004L13.1717 76.6348C13.7073 77.7827 14.5818 79.3792 15.8908 81.5771C15.7908 81.0165 15.7963 80.4421 15.9071 79.8836C15.9688 79.5688 16.0953 79.2704 16.2787 79.0072C16.4621 78.7441 16.6983 78.522 16.9722 78.3552C17.4754 78.0481 18.5215 77.7759 19.8704 79.3927C20.4933 80.1425 20.8407 81.0185 21.1747 81.8628C21.347 82.3311 21.5468 82.7887 21.7731 83.2333C22.5942 84.7055 23.7394 85.9716 25.1222 86.9356C26.0083 87.5557 26.9258 88.1297 27.8711 88.6552C29.3042 89.4827 30.7866 90.3418 32.0546 91.5779C33.016 92.5014 33.8596 93.5402 34.566 94.6708C34.9917 95.4128 35.3318 96.2007 35.5798 97.0194C35.7682 97.6177 36.0015 98.2009 36.2777 98.764L46.3253 117.863L52.6021 106.307L73.7659 120.689L58.6796 147.359C58.6421 147.462 54.0721 154.749 46.4689 154.26ZM7.56663 76.5444C7.19129 76.5275 6.82441 76.6591 6.54536 76.9107C5.97796 77.4168 6.05847 78.0443 6.23728 79.0226C6.30592 79.4096 6.40883 79.7897 6.54481 80.1584L6.65855 80.4692L6.42441 80.7112C5.98275 81.1406 5.67061 81.6854 5.52359 82.2836C5.42643 82.6812 5.40689 83.0938 5.46603 83.4988C6.96064 97.8458 22.9197 104.593 23.0825 104.66L23.3179 104.758L32.5629 140.339C33.1604 142.686 34.2259 144.889 35.6955 146.814C37.1651 148.739 39.0085 150.347 41.1151 151.543C45.3927 153.921 49.4979 153.864 53.3125 151.365C55.0976 150.171 56.6294 148.636 57.8201 146.849L72.4259 121.014L52.9843 107.802L46.3325 120.031L35.3888 99.2314C35.0873 98.6222 34.8338 97.9903 34.6308 97.3416C34.406 96.5957 34.0986 95.8773 33.7143 95.1998C33.0515 94.1482 32.2611 93.1827 31.3611 92.3253C30.1726 91.174 28.8114 90.3871 27.3686 89.5511C26.3907 89.0092 25.4427 88.4152 24.5285 87.7717C23.0195 86.7166 21.7703 85.3322 20.8751 83.7233C20.6322 83.2446 20.4166 82.7525 20.2292 82.2495C19.9109 81.4422 19.61 80.6822 19.0843 80.0596C18.7884 79.7037 18.0421 78.9126 17.5069 79.2381C17.3511 79.3354 17.2173 79.464 17.1141 79.6159C17.0109 79.7678 16.9406 79.9395 16.9076 80.1202C16.4754 82.003 18.3749 85.6145 19.317 87.1588L19.4733 87.408L18.6072 87.9592L18.5024 87.7905C15.1109 82.3884 13.179 79.0807 12.2484 77.0769L12.2326 77.0424C11.5796 75.6402 10.9106 74.8874 10.2397 74.8031C10.0669 74.7766 9.89011 74.8038 9.7333 74.8811C9.3199 75.1117 9.10171 75.7457 9.19034 76.4868L9.36612 77.9921L8.3129 76.8958C8.11751 76.6885 7.85087 76.563 7.56663 76.5444Z" fill="black"/>
<path d="M51.5097 128.335C51.4264 128.33 51.3457 128.304 51.2746 128.261C51.2035 128.217 51.1441 128.157 51.1014 128.085L45.8961 119.218C45.8588 119.16 45.8335 119.095 45.8219 119.027C45.8103 118.959 45.8126 118.889 45.8287 118.822C45.8447 118.755 45.8742 118.691 45.9154 118.636C45.9565 118.58 46.0085 118.533 46.0681 118.498C46.1277 118.463 46.1938 118.441 46.2624 118.432C46.331 118.423 46.4007 118.428 46.4672 118.447C46.5338 118.466 46.5958 118.498 46.6497 118.541C46.7036 118.585 46.7481 118.638 46.7807 118.699L51.9861 127.564C52.0333 127.644 52.0576 127.736 52.0566 127.829C52.0555 127.922 52.029 128.013 51.98 128.093C51.9311 128.172 51.8614 128.237 51.7785 128.279C51.6956 128.322 51.6027 128.341 51.5097 128.335Z" fill="black"/>
<path d="M10.9364 91.5673C10.8095 91.5589 10.6903 91.5035 10.6019 91.4121C7.43963 88.1231 5.7093 80.9609 5.63621 80.6579C5.61685 80.5912 5.61126 80.5212 5.61978 80.4522C5.62829 80.3832 5.65074 80.3166 5.68575 80.2565C5.72077 80.1965 5.76762 80.1442 5.82347 80.1027C5.87931 80.0613 5.94299 80.0317 6.01064 80.0157C6.07828 79.9996 6.14848 79.9975 6.21698 80.0094C6.28548 80.0213 6.35084 80.047 6.40911 80.0849C6.46738 80.1228 6.51733 80.1722 6.55594 80.23C6.59455 80.2878 6.62101 80.3529 6.63372 80.4212C6.65232 80.4918 8.37182 87.6224 11.3367 90.7008C11.4079 90.7754 11.4549 90.8698 11.4717 90.9716C11.4884 91.0733 11.4741 91.1778 11.4306 91.2713C11.3871 91.3648 11.3165 91.4431 11.2279 91.4958C11.1393 91.5486 11.0368 91.5735 10.9339 91.5672L10.9364 91.5673Z" fill="black"/>
<path d="M14.2951 88.9985C14.1776 88.9907 14.0662 88.9427 13.9799 88.8625C11.0064 86.1179 8.31004 77.0628 8.19068 76.6797C8.17154 76.6149 8.16533 76.5471 8.17242 76.48C8.1795 76.4129 8.19973 76.3478 8.23196 76.2885C8.26419 76.2292 8.30778 76.1768 8.36024 76.1344C8.41271 76.092 8.47302 76.0603 8.53774 76.0411C8.60245 76.022 8.6703 76.0158 8.73742 76.0229C8.80453 76.0299 8.86959 76.0502 8.92889 76.0824C8.98818 76.1146 9.04055 76.1582 9.08299 76.2107C9.12544 76.2631 9.15714 76.3235 9.17628 76.3882C9.20381 76.4799 11.9086 85.5639 14.6763 88.1101C14.7538 88.1822 14.8073 88.2764 14.8292 88.38C14.8511 88.4835 14.8405 88.5913 14.7987 88.6886C14.757 88.7859 14.6862 88.8679 14.596 88.9234C14.5059 88.9788 14.4008 89.0051 14.2951 88.9985Z" fill="black"/>
<path d="M109.868 50.0173C101.615 46.6968 96.9697 37.7489 98.8803 28.8447L103.668 6.51319L115.367 9.0196C116.242 9.22663 119.872 10.1866 122.136 13.7761C123.038 15.1976 123.614 16.8989 123.807 19.187C124.184 23.6673 124.453 46.2744 113.904 49.6775C112.601 50.0898 111.222 50.2059 109.868 50.0173Z" fill="black"/>
<path d="M136.791 156.693L66.5698 155.891L65.5518 65.198C75.8509 61.4578 86.547 58.9176 97.428 57.628C112.974 55.799 125.151 56.4637 136.062 58.5384C136.304 91.3269 136.546 123.905 136.791 156.693Z" fill="black"/>
<path d="M109.543 48.9918L109.545 40.7464C112.194 41.5922 115.109 40.0848 116.127 37.2929C117.17 34.4312 115.828 31.3171 113.128 30.3326C111.97 29.9137 110.697 29.936 109.554 30.3955L109.564 14.8547L86.6904 13.9804C85.6305 13.9394 84.5728 14.1076 83.578 14.4755C82.5831 14.8434 81.6705 15.4037 80.8923 16.1245C80.1141 16.8453 79.4855 17.7124 79.0426 18.6762C78.5996 19.64 78.3509 20.6816 78.3107 21.7416L77.5739 40.9939C77.4659 43.9142 78.5207 46.7581 80.5068 48.9016C82.493 51.0451 85.2484 52.3132 88.1684 52.4277L91.631 52.1824L92.1801 58.408C92.2015 58.6821 92.3181 58.9401 92.5097 59.1372C96.0748 62.7914 101.084 64.0415 105.066 62.3494C107.815 61.1856 109.578 59.8782 110.317 58.8718C110.485 58.6345 110.559 58.3432 110.524 58.0545L109.543 48.9918Z" fill="white"/>
<path d="M91.8645 52.3345L102.35 51.7725C102.419 51.7699 102.487 51.7911 102.542 51.8325C102.598 51.8739 102.637 51.9331 102.654 52.0001C102.671 52.0671 102.665 52.1379 102.636 52.2008C102.608 52.2637 102.558 52.3149 102.496 52.3459L92.1738 57.2739L91.8645 52.3345Z" fill="black"/>
<path d="M110.05 37.5028C109.703 37.3768 109.401 37.1508 109.183 36.8533C108.964 36.5558 108.839 36.2002 108.823 35.8315C108.806 35.4627 108.9 35.0975 109.091 34.7819C109.283 34.4663 109.563 34.2145 109.898 34.0585C110.232 33.9024 110.606 33.8491 110.97 33.9053C111.335 33.9614 111.675 34.1245 111.947 34.3739C112.219 34.6234 112.411 34.9479 112.499 35.3064C112.586 35.6649 112.566 36.0414 112.439 36.3882C112.27 36.8526 111.923 37.2308 111.475 37.4398C111.027 37.6488 110.515 37.6714 110.05 37.5028ZM110.975 34.9641C110.819 34.9067 110.65 34.8969 110.488 34.9359C110.327 34.975 110.181 35.0611 110.068 35.1834C109.956 35.3057 109.882 35.4586 109.856 35.6228C109.831 35.7871 109.855 35.9551 109.925 36.1058C109.995 36.2564 110.108 36.3829 110.25 36.469C110.393 36.5552 110.557 36.5973 110.723 36.5899C110.889 36.5824 111.049 36.5259 111.183 36.4274C111.317 36.3289 111.418 36.1929 111.475 36.0366C111.551 35.8281 111.541 35.598 111.447 35.3969C111.354 35.1958 111.184 35.0401 110.975 34.9641Z" fill="black"/>
<path d="M109.171 36.0763C109.052 36.0337 108.953 35.9487 108.893 35.8375C108.832 35.7263 108.815 35.5968 108.845 35.4738C109.102 34.385 109.649 33.6282 110.469 33.22C112.011 32.452 113.925 33.2724 114.005 33.3071C114.13 33.3617 114.228 33.4638 114.278 33.5908C114.327 33.7177 114.325 33.8593 114.27 33.9842C114.215 34.1092 114.113 34.2074 113.986 34.2571C113.859 34.3069 113.718 34.3041 113.593 34.2495C113.579 34.2442 112.033 33.585 110.924 34.1394C110.383 34.4093 110.032 34.9231 109.842 35.7118C109.81 35.8435 109.728 35.9573 109.612 36.0283C109.497 36.0993 109.358 36.1218 109.226 36.0908L109.171 36.0763Z" fill="black"/>
<path d="M89.5839 44.7433C88.9257 44.6649 88.2955 44.4312 87.7453 44.0615C87.6438 43.9765 87.5791 43.8556 87.5646 43.7241C87.5502 43.5925 87.5871 43.4604 87.6677 43.3554C87.7484 43.2504 87.8664 43.1807 87.9973 43.1607C88.1281 43.1407 88.2617 43.172 88.37 43.2481C88.4786 43.3271 90.9102 45.0886 94.0869 41.6578C94.1316 41.6046 94.1867 41.5611 94.2487 41.5299C94.3107 41.4986 94.3785 41.4803 94.4478 41.476C94.5171 41.4717 94.5866 41.4815 94.652 41.5048C94.7174 41.5282 94.7774 41.5645 94.8284 41.6117C94.8793 41.6589 94.9202 41.716 94.9484 41.7794C94.9767 41.8429 94.9918 41.9114 94.9928 41.9809C94.9938 42.0503 94.9806 42.1193 94.9542 42.1835C94.9278 42.2477 94.8886 42.3059 94.839 42.3546C92.7784 44.5812 90.8916 44.9154 89.5839 44.7433Z" fill="black"/>
<path d="M94.1488 31.2742C94.732 31.4868 95.3771 31.1864 95.5898 30.6032C95.8024 30.02 95.502 29.3748 94.9188 29.1622C94.3356 28.9496 93.6904 29.25 93.4778 29.8332C93.2652 30.4164 93.5656 31.0615 94.1488 31.2742Z" fill="black"/>
<path d="M80.497 31.0883C81.1125 31.1693 81.677 30.736 81.7579 30.1205C81.8389 29.5051 81.4056 28.9405 80.7902 28.8596C80.1747 28.7786 79.6102 29.2119 79.5292 29.8274C79.4483 30.4428 79.8816 31.0074 80.497 31.0883Z" fill="black"/>
<path d="M78.167 35.8677C75.7441 34.9844 74.2066 32.2115 74.6408 29.215C75.1277 25.8418 77.9327 23.4448 80.8912 23.8706C81.6207 23.9838 82.3169 24.2545 82.9313 24.6638C83.5456 25.0732 84.0636 25.6114 84.449 26.2411C85.2902 27.5895 85.6188 29.1954 85.375 30.7659C85.1647 32.341 84.3948 33.7879 83.206 34.8424C82.6583 35.3376 82.0092 35.7076 81.3039 35.9264C80.5986 36.1452 79.8541 36.2077 79.1223 36.1095C78.7965 36.0614 78.4765 35.9804 78.167 35.8677ZM81.5065 25.0672C81.263 24.9797 81.0112 24.9172 80.7551 24.8807C78.3553 24.533 76.0718 26.5411 75.6663 29.354C75.2608 32.167 76.8826 34.7385 79.2799 35.0853C79.866 35.1622 80.4619 35.11 81.0258 34.9325C81.5897 34.755 82.1079 34.4564 82.5443 34.0576C83.5444 33.1648 84.1899 31.942 84.3629 30.6127C84.5768 29.2846 84.3036 27.924 83.5937 26.7815C83.1033 25.9987 82.3684 25.3996 81.5029 25.0769L81.5065 25.0672Z" fill="black"/>
<path d="M85.2456 30.9344C85.1316 30.8919 85.0363 30.8102 84.9769 30.704C84.9175 30.5977 84.8978 30.4738 84.9213 30.3543C84.9449 30.2349 85.0101 30.1277 85.1053 30.0519C85.2006 29.9761 85.3197 29.9366 85.4414 29.9405L90.307 30.1248C90.4365 30.1385 90.5559 30.201 90.641 30.2994C90.7261 30.3979 90.7707 30.525 90.7656 30.6551C90.7606 30.7852 90.7062 30.9085 90.6137 31C90.5212 31.0916 90.3973 31.1445 90.2672 31.1482L85.403 30.9672C85.3493 30.9638 85.2963 30.9528 85.2456 30.9344Z" fill="black"/>
<path d="M85.5348 36.8685C85.2865 36.7854 85.0594 36.649 84.8693 36.4688C84.6793 36.2886 84.5309 36.0691 84.4347 35.8256C84.1661 35.0639 84.5407 34.291 84.9552 33.8658C85.2485 33.5688 85.623 33.3652 86.0317 33.2804L85.9813 27.2531C85.9876 27.1222 86.0438 26.9987 86.1383 26.9079C86.2328 26.8171 86.3585 26.7659 86.4895 26.7648C86.6205 26.7637 86.747 26.8127 86.843 26.9019C86.9391 26.991 86.9974 27.1135 87.006 27.2443L87.0712 34.2576L86.531 34.2409C86.3758 34.2361 86.2213 34.2626 86.0765 34.3186C85.9317 34.3747 85.7997 34.4593 85.6882 34.5673C85.532 34.7261 85.2719 35.1175 85.3963 35.4578C85.5208 35.7982 85.9965 36.0591 86.5741 35.9282C86.6411 35.9085 86.7113 35.9027 86.7806 35.9111C86.8499 35.9195 86.9167 35.942 86.977 35.9771C87.0373 36.0122 87.0898 36.0592 87.1313 36.1153C87.1728 36.1714 87.2024 36.2353 87.2184 36.3032C87.2344 36.3712 87.2363 36.4416 87.2241 36.5103C87.2119 36.579 87.1858 36.6445 87.1475 36.7028C87.1091 36.7611 87.0593 36.8109 87.001 36.8493C86.9427 36.8877 86.8772 36.9137 86.8085 36.9259C86.3874 37.0304 85.9449 37.0105 85.5348 36.8685Z" fill="black"/>
<path d="M96.1448 19.3287C102.712 20.2775 108.606 17.1043 109.308 12.2412C110.011 7.37815 105.256 2.66671 98.689 1.71792C92.1217 0.769141 86.2283 3.9423 85.5257 8.80538C84.8232 13.6685 89.5775 18.3799 96.1448 19.3287Z" fill="black"/>
<path d="M114.746 26.1507L108.124 25.5173C106.321 25.3445 104.662 24.4629 103.509 23.0665C102.357 21.6701 101.806 19.8731 101.978 18.0708L102.492 12.6972L115.91 13.981L114.746 26.1507Z" fill="black"/>
<path d="M78.5356 19.9253C83.0947 21.5875 88.138 19.239 89.8001 14.68C91.4623 10.1209 89.1138 5.07758 84.5548 3.41544C79.9957 1.75331 74.9524 4.10175 73.2902 8.66083C71.6281 13.2199 73.9766 18.2632 78.5356 19.9253Z" fill="black"/>
<path d="M100.002 31.0045C99.8899 30.9638 99.7952 30.8852 99.7345 30.7821C99.6739 30.679 99.6512 30.5581 99.6703 30.44C99.6893 30.322 99.749 30.2143 99.839 30.1356C99.929 30.0569 100.044 30.012 100.163 30.0088L110.508 29.6833C110.578 29.6775 110.647 29.6859 110.714 29.708C110.78 29.7301 110.841 29.7655 110.893 29.8119C110.945 29.8583 110.987 29.9148 111.016 29.978C111.045 30.0412 111.062 30.1097 111.064 30.1794C111.066 30.249 111.054 30.3184 111.028 30.3832C111.003 30.4481 110.964 30.507 110.915 30.5565C110.866 30.6059 110.807 30.6448 110.742 30.6709C110.678 30.6969 110.608 30.7095 110.539 30.7078L100.194 31.0334C100.129 31.0353 100.064 31.0256 100.002 31.0045Z" fill="black"/>
<path d="M66.7181 64.8252C65.8362 65.1177 64.982 65.4878 64.1656 65.9314C58.0635 69.2522 55.6952 75.9296 53.7833 82.4692C51.7522 89.4229 48.3858 105.504 46.761 118.056C53.0961 118.87 60.4964 119.755 66.8313 120.571L66.7181 64.8252Z" fill="black"/>
<path d="M99.6598 69.9252C96.2634 69.6741 93.0081 68.4642 90.2721 66.4364C90.169 66.3529 90.1023 66.2328 90.0858 66.1012C90.0694 65.9697 90.1045 65.8368 90.1838 65.7306C90.2631 65.6243 90.3804 65.5529 90.5113 65.5312C90.6421 65.5095 90.7762 65.5394 90.8855 65.6144C92.4099 66.741 96.5594 69.353 102.049 68.8754C109.618 68.2203 113.723 62.372 114.469 61.2062C114.504 61.1466 114.55 61.0945 114.606 61.0533C114.661 61.012 114.724 60.9824 114.791 60.9662C114.859 60.9499 114.928 60.9474 114.997 60.9588C115.065 60.9702 115.13 60.9953 115.188 61.0324C115.246 61.0696 115.296 61.1182 115.335 61.1752C115.375 61.2323 115.402 61.2966 115.415 61.3644C115.429 61.4321 115.428 61.5019 115.414 61.5696C115.4 61.6373 115.373 61.7014 115.333 61.7581C114.542 62.9929 110.185 69.2005 102.138 69.8968C101.314 69.9693 100.485 69.9788 99.6598 69.9252Z" fill="white"/>
<path d="M77.9973 72.3068L66.0627 74.642C64.4883 74.95 63.4617 76.4761 63.7697 78.0506L68.5253 102.355C68.8334 103.93 70.3595 104.957 71.9339 104.648L83.8685 102.313C85.443 102.005 86.4696 100.479 86.1615 98.9047L81.4059 74.5998C81.0979 73.0253 79.5718 71.9987 77.9973 72.3068Z" fill="#FFC1EB"/>
<path d="M64.3523 78.0763L64.3855 78.2113C64.493 78.6483 64.98 78.9042 65.4733 78.7829L69.4723 77.7994C69.9656 77.6781 70.2784 77.2255 70.1709 76.7885L70.1377 76.6535C70.0302 76.2165 69.5432 75.9606 69.0499 76.0819L65.0509 77.0654C64.5576 77.1867 64.2448 77.6393 64.3523 78.0763Z" fill="white"/>
<path d="M93.4213 35.7342C91.0104 34.8553 89.4786 32.1718 89.8951 29.2837C90.3725 26.0189 93.1603 23.714 96.1245 24.1391C99.0887 24.5643 101.109 27.5706 100.637 30.8371C100.164 34.1036 97.3721 36.4125 94.4121 35.9834C94.0739 35.9356 93.7418 35.8521 93.4213 35.7342ZM96.7564 25.3501C96.5031 25.257 96.2408 25.1907 95.9737 25.1521C93.5731 24.8068 91.3026 26.7267 90.9123 29.4305C90.522 32.1343 92.1535 34.6192 94.5532 34.9669C96.9529 35.3147 99.2243 33.3923 99.6146 30.6885C99.9599 28.2879 98.7213 26.0664 96.7613 25.3518L96.7564 25.3501Z" fill="black"/>
<path d="M129.185 107.537L65.8046 110.777L65.6285 101.838L127.927 98.5103L129.185 107.537Z" fill="#DADADA"/>
<path d="M132.412 127.373L66.313 130.229L66.313 120.735L130.932 117.555L132.412 127.373Z" fill="#DADADA"/>
<path d="M88.5396 93.6865C88.5396 93.6865 80.1076 93.89 76.2166 86.0978C75.8516 85.3626 75.3318 84.7152 74.693 84.1998C73.5952 83.3167 71.9069 82.699 69.9991 84.6154C69.9991 84.6154 67.3563 80.6063 65.0826 82.6536C65.0826 82.6536 63.4375 84.4841 65.2619 87.8645C65.2619 87.8645 61.9254 89.0051 64.779 94.8946C65.2171 95.7997 65.6418 96.7116 66.0112 97.6456C67.5075 101.409 72.9971 112.173 87.5739 114.623C88.5239 114.787 89.4071 115.219 90.1192 115.869L123.13 145.725C126.169 148.499 129.796 150.55 133.739 151.727C139.383 153.376 149.734 153.367 155.546 146.274C158.963 142.047 160.666 136.689 160.317 131.265L159.546 118.024L130.267 120.909L102.199 100.69C101.262 100.012 100.522 99.0975 100.055 98.0398C98.5653 94.6912 94.772 86.9001 90.237 83.3247C90.0803 83.2015 89.9261 83.081 89.7749 82.953C88.7999 82.1189 87.5604 81.4015 86.2684 81.2978C84.2217 81.1354 82.3638 82.9162 83.5054 84.9182C84.0067 85.799 84.856 86.5479 85.6466 87.1696C86.4668 87.8082 87.1479 88.6077 87.6482 89.5189C88.1486 90.4301 88.4575 91.4339 88.5562 92.4687C88.5913 92.8742 88.5857 93.2821 88.5396 93.6865Z" fill="white"/>
<path d="M79.1003 98.4384C79.0221 98.4329 78.9462 98.4095 78.8784 98.3701C77.5583 97.6185 76.3345 96.7092 75.2339 95.6621C71.5054 92.1026 70.0554 87.7382 69.4945 84.7038C69.4691 84.5699 69.4978 84.4313 69.5745 84.3186C69.6512 84.2058 69.7695 84.1282 69.9035 84.1027C70.0374 84.0772 70.176 84.106 70.2888 84.1827C70.4015 84.2594 70.4791 84.3777 70.5046 84.5116C71.0365 87.3976 72.413 91.5438 75.9428 94.9156C76.9799 95.9047 78.1335 96.7638 79.3783 97.474C79.4795 97.5313 79.5583 97.6213 79.6017 97.7293C79.645 97.8373 79.6504 97.9568 79.6169 98.0682C79.5835 98.1796 79.5131 98.2764 79.4175 98.3426C79.3218 98.4088 79.2064 98.4405 79.0904 98.4326L79.1003 98.4384Z" fill="black"/>
<path d="M75.5337 102.555C75.4544 102.551 75.3773 102.527 75.3092 102.486C74.6418 102.133 74.0281 101.687 73.4865 101.161C73.2995 100.989 73.0638 100.776 72.7579 100.494C69.1078 97.2739 66.3561 92.9595 64.7814 88.0163C64.7574 87.9513 64.7469 87.8821 64.7504 87.8129C64.7538 87.7437 64.7713 87.676 64.8017 87.6137C64.8321 87.5515 64.8747 87.496 64.9271 87.4507C64.9795 87.4054 65.0405 87.3711 65.1065 87.35C65.1724 87.3289 65.242 87.3213 65.311 87.3278C65.3799 87.3343 65.4469 87.3547 65.5078 87.3877C65.5686 87.4208 65.6222 87.4658 65.6652 87.5201C65.7082 87.5744 65.7398 87.6368 65.758 87.7037C67.2798 92.4712 69.9337 96.6276 73.4374 99.7252C73.7615 100.003 73.9989 100.229 74.1883 100.403C74.6761 100.882 75.2315 101.286 75.8367 101.602C75.9354 101.661 76.0115 101.751 76.0528 101.859C76.0941 101.966 76.0982 102.084 76.0644 102.194C76.0307 102.304 75.9611 102.399 75.8667 102.465C75.7723 102.53 75.6587 102.562 75.5439 102.556L75.5337 102.555Z" fill="black"/>
<path d="M165.261 118.037L130.861 121.544L122.469 56.8981L131.332 57.594C136.832 57.9952 142.06 60.1482 146.247 63.7371C148.429 65.6166 150.242 67.8862 151.592 70.4297C152.561 72.2767 153.272 74.2474 153.707 76.2871L165.261 118.037Z" fill="black"/>
<path d="M138.021 126.247C137.931 126.243 137.844 126.215 137.769 126.166L130.421 121.472C130.312 121.396 130.237 121.281 130.211 121.151C130.185 121.021 130.21 120.886 130.282 120.774C130.353 120.662 130.465 120.583 130.594 120.551C130.722 120.52 130.858 120.54 130.973 120.607L138.321 125.302C138.417 125.364 138.491 125.456 138.529 125.564C138.567 125.672 138.567 125.789 138.531 125.898C138.494 126.006 138.422 126.1 138.327 126.163C138.231 126.226 138.117 126.255 138.003 126.246L138.021 126.247Z" fill="black"/>
</svg>
