<svg width="24" height="24" viewBox="0 0 24 24" fill="none" xmlns="http://www.w3.org/2000/svg">
<path d="M15.5625 19.125C15.4444 19.125 15.3294 19.0879 15.2336 19.0188C15.1378 18.9498 15.0662 18.8524 15.0289 18.7404C14.9915 18.6284 14.9904 18.5075 15.0256 18.3948C15.0608 18.2821 15.1306 18.1833 15.225 18.1125C15.7765 17.7131 16.1864 17.1482 16.395 16.5H15.1875C15.0383 16.5 14.8952 16.4407 14.7898 16.3352C14.6843 16.2298 14.625 16.0867 14.625 15.9375C14.625 15.7883 14.6843 15.6452 14.7898 15.5398C14.8952 15.4343 15.0383 15.375 15.1875 15.375H17.0625C17.2117 15.375 17.3548 15.4343 17.4602 15.5398C17.5657 15.6452 17.625 15.7883 17.625 15.9375C17.5841 16.5461 17.4081 17.1378 17.1097 17.6698C16.8113 18.2017 16.398 18.6604 15.9 19.0125C15.8024 19.085 15.6841 19.1245 15.5625 19.125ZM19.3125 19.125C19.1944 19.125 19.0794 19.0879 18.9836 19.0188C18.8878 18.9498 18.8162 18.8524 18.7789 18.7404C18.7415 18.6284 18.7404 18.5075 18.7756 18.3948C18.8108 18.2821 18.8806 18.1833 18.975 18.1125C19.5265 17.7131 19.9364 17.1482 20.145 16.5H18.9375C18.7883 16.5 18.6452 16.4407 18.5398 16.3352C18.4343 16.2298 18.375 16.0867 18.375 15.9375C18.375 15.7883 18.4343 15.6452 18.5398 15.5398C18.6452 15.4343 18.7883 15.375 18.9375 15.375H20.8125C20.9617 15.375 21.1048 15.4343 21.2102 15.5398C21.3157 15.6452 21.375 15.7883 21.375 15.9375C21.3341 16.5461 21.1581 17.1378 20.8597 17.6698C20.5613 18.2017 20.148 18.6604 19.65 19.0125C19.5524 19.085 19.4341 19.1245 19.3125 19.125ZM8.8125 8.625H6.9375C6.78832 8.625 6.64524 8.56574 6.53975 8.46025C6.43426 8.35476 6.375 8.21169 6.375 8.0625C6.41587 7.45395 6.59191 6.86218 6.89031 6.33024C7.18872 5.7983 7.60197 5.33959 8.1 4.9875C8.21935 4.89799 8.36936 4.85956 8.51705 4.88066C8.66473 4.90175 8.79799 4.98066 8.8875 5.1C8.97701 5.21935 9.01544 5.36937 8.99435 5.51705C8.97325 5.66474 8.89435 5.79799 8.775 5.8875C8.22348 6.28694 7.81364 6.85178 7.605 7.5H8.8125C8.96168 7.5 9.10476 7.55927 9.21025 7.66476C9.31574 7.77024 9.375 7.91332 9.375 8.0625C9.375 8.21169 9.31574 8.35476 9.21025 8.46025C9.10476 8.56574 8.96168 8.625 8.8125 8.625ZM5.0625 8.625H3.1875C3.03832 8.625 2.89524 8.56574 2.78975 8.46025C2.68426 8.35476 2.625 8.21169 2.625 8.0625C2.66587 7.45395 2.84191 6.86218 3.14031 6.33024C3.43872 5.7983 3.85197 5.33959 4.35 4.9875C4.46935 4.89799 4.61936 4.85956 4.76705 4.88066C4.91473 4.90175 5.04799 4.98066 5.1375 5.1C5.22701 5.21935 5.26544 5.36937 5.24435 5.51705C5.22325 5.66474 5.14435 5.79799 5.025 5.8875C4.47348 6.28694 4.06364 6.85178 3.855 7.5H5.0625C5.21168 7.5 5.35476 7.55927 5.46025 7.66476C5.56574 7.77024 5.625 7.91332 5.625 8.0625C5.625 8.21169 5.56574 8.35476 5.46025 8.46025C5.35476 8.56574 5.21168 8.625 5.0625 8.625ZM20.8125 8.625H11.4375C11.2883 8.625 11.1452 8.56574 11.0398 8.46025C10.9343 8.35476 10.875 8.21169 10.875 8.0625C10.875 7.91332 10.9343 7.77024 11.0398 7.66476C11.1452 7.55927 11.2883 7.5 11.4375 7.5H20.8125C20.9617 7.5 21.1048 7.55927 21.2102 7.66476C21.3157 7.77024 21.375 7.91332 21.375 8.0625C21.375 8.21169 21.3157 8.35476 21.2102 8.46025C21.1048 8.56574 20.9617 8.625 20.8125 8.625ZM20.8125 11.25H3.1875C3.03832 11.25 2.89524 11.1907 2.78975 11.0852C2.68426 10.9798 2.625 10.8367 2.625 10.6875C2.625 10.5383 2.68426 10.3952 2.78975 10.2898C2.89524 10.1843 3.03832 10.125 3.1875 10.125H20.8125C20.9617 10.125 21.1048 10.1843 21.2102 10.2898C21.3157 10.3952 21.375 10.5383 21.375 10.6875C21.375 10.8367 21.3157 10.9798 21.2102 11.0852C21.1048 11.1907 20.9617 11.25 20.8125 11.25ZM20.8125 13.875H3.1875C3.03832 13.875 2.89524 13.8157 2.78975 13.7102C2.68426 13.6048 2.625 13.4617 2.625 13.3125C2.625 13.1633 2.68426 13.0202 2.78975 12.9148C2.89524 12.8093 3.03832 12.75 3.1875 12.75H20.8125C20.9617 12.75 21.1048 12.8093 21.2102 12.9148C21.3157 13.0202 21.375 13.1633 21.375 13.3125C21.375 13.4617 21.3157 13.6048 21.2102 13.7102C21.1048 13.8157 20.9617 13.875 20.8125 13.875ZM12.5625 16.5H3.1875C3.03832 16.5 2.89524 16.4407 2.78975 16.3352C2.68426 16.2298 2.625 16.0867 2.625 15.9375C2.625 15.7883 2.68426 15.6452 2.78975 15.5398C2.89524 15.4343 3.03832 15.375 3.1875 15.375H12.5625C12.7117 15.375 12.8548 15.4343 12.9602 15.5398C13.0657 15.6452 13.125 15.7883 13.125 15.9375C13.125 16.0867 13.0657 16.2298 12.9602 16.3352C12.8548 16.4407 12.7117 16.5 12.5625 16.5Z" fill="#222222"/>
</svg>
