<svg width="315" height="50" viewBox="0 0 315 50" fill="none" xmlns="http://www.w3.org/2000/svg">
<rect opacity="0.05" width="315" height="50" rx="12" fill="#231173"/>
<path d="M57.6719 22.4929C57.6188 22.0223 57.4001 21.6577 57.0156 21.3991C56.6312 21.1373 56.1473 21.0064 55.5639 21.0064C55.1463 21.0064 54.785 21.0727 54.4801 21.2053C54.1752 21.3345 53.9382 21.5135 53.7692 21.7422C53.6035 21.9676 53.5206 22.2244 53.5206 22.5128C53.5206 22.7547 53.5769 22.9635 53.6896 23.1392C53.8056 23.3149 53.9564 23.4624 54.142 23.5817C54.331 23.6977 54.5331 23.7955 54.7486 23.875C54.964 23.9512 55.1712 24.0142 55.37 24.0639L56.3643 24.3224C56.6892 24.402 57.0223 24.5097 57.3636 24.6456C57.705 24.7815 58.0215 24.9605 58.3132 25.1825C58.6049 25.4046 58.8402 25.6797 59.0192 26.0078C59.2015 26.3359 59.2926 26.7287 59.2926 27.1861C59.2926 27.7628 59.1435 28.2749 58.8452 28.7223C58.5502 29.1697 58.121 29.5227 57.5575 29.7812C56.9974 30.0398 56.3196 30.169 55.5241 30.169C54.7618 30.169 54.1023 30.0481 53.5455 29.8061C52.9886 29.5642 52.5528 29.2211 52.2379 28.777C51.9231 28.3295 51.7491 27.7992 51.7159 27.1861H53.2571C53.2869 27.554 53.4063 27.8606 53.6151 28.1058C53.8272 28.3478 54.0973 28.5284 54.4254 28.6477C54.7569 28.7637 55.1198 28.8217 55.5142 28.8217C55.9484 28.8217 56.3345 28.7538 56.6726 28.6179C57.014 28.4787 57.2824 28.2865 57.478 28.0412C57.6735 27.7926 57.7713 27.5026 57.7713 27.1712C57.7713 26.8696 57.6851 26.6226 57.5128 26.4304C57.3438 26.2382 57.1134 26.0791 56.8217 25.9531C56.5334 25.8272 56.2069 25.7161 55.8423 25.62L54.6392 25.2919C53.8239 25.0698 53.1776 24.7434 52.7003 24.3125C52.2263 23.8816 51.9893 23.3116 51.9893 22.6023C51.9893 22.0156 52.1484 21.5036 52.4666 21.0661C52.7848 20.6286 53.2157 20.2888 53.7592 20.0469C54.3028 19.8016 54.916 19.679 55.5987 19.679C56.2881 19.679 56.8963 19.8 57.4233 20.0419C57.9536 20.2839 58.3712 20.617 58.6761 21.0412C58.9811 21.4621 59.1402 21.946 59.1534 22.4929H57.6719ZM61.0091 30V22.3636H62.4956V30H61.0091ZM61.7598 21.1854C61.5012 21.1854 61.2792 21.0992 61.0936 20.9268C60.9113 20.7512 60.8201 20.5424 60.8201 20.3004C60.8201 20.0552 60.9113 19.8464 61.0936 19.674C61.2792 19.4983 61.5012 19.4105 61.7598 19.4105C62.0183 19.4105 62.2387 19.4983 62.421 19.674C62.6066 19.8464 62.6994 20.0552 62.6994 20.3004C62.6994 20.5424 62.6066 20.7512 62.421 20.9268C62.2387 21.0992 62.0183 21.1854 61.7598 21.1854ZM67.6971 33.0227C67.0906 33.0227 66.5685 32.9432 66.131 32.7841C65.6969 32.625 65.3422 32.4145 65.0671 32.1527C64.792 31.8909 64.5865 31.6042 64.4506 31.2926L65.7283 30.7656C65.8178 30.9115 65.9371 31.0656 66.0863 31.228C66.2388 31.3937 66.4442 31.5346 66.7028 31.6506C66.9646 31.7666 67.301 31.8246 67.712 31.8246C68.2754 31.8246 68.7411 31.687 69.109 31.4119C69.4769 31.1402 69.6609 30.706 69.6609 30.1094V28.608H69.5664C69.4769 28.7704 69.3477 28.951 69.1786 29.1499C69.0129 29.3487 68.7842 29.5211 68.4925 29.6669C68.2009 29.8127 67.8214 29.8857 67.354 29.8857C66.7508 29.8857 66.2073 29.7448 65.7234 29.4631C65.2428 29.178 64.8616 28.7588 64.5799 28.2053C64.3015 27.6484 64.1623 26.964 64.1623 26.152C64.1623 25.34 64.2998 24.6439 64.5749 24.0639C64.8533 23.4839 65.2345 23.0398 65.7184 22.7315C66.2023 22.42 66.7508 22.2642 67.364 22.2642C67.8379 22.2642 68.2208 22.3438 68.5124 22.5028C68.8041 22.6586 69.0311 22.8409 69.1935 23.0497C69.3593 23.2585 69.4869 23.4425 69.5763 23.6016H69.6857V22.3636H71.1424V30.169C71.1424 30.8253 70.9899 31.3639 70.685 31.7848C70.3801 32.2057 69.9674 32.5173 69.4471 32.7195C68.93 32.9216 68.3467 33.0227 67.6971 33.0227ZM67.6822 28.6527C68.1097 28.6527 68.471 28.5533 68.766 28.3544C69.0643 28.1522 69.2897 27.8639 69.4421 27.4893C69.5979 27.1115 69.6758 26.6591 69.6758 26.1321C69.6758 25.6184 69.5996 25.166 69.4471 24.7749C69.2946 24.3838 69.0709 24.0788 68.7759 23.8601C68.4809 23.638 68.1164 23.527 67.6822 23.527C67.2347 23.527 66.8619 23.643 66.5636 23.875C66.2653 24.1037 66.0399 24.4152 65.8874 24.8097C65.7383 25.2041 65.6637 25.6449 65.6637 26.1321C65.6637 26.6326 65.7399 27.0717 65.8924 27.4496C66.0449 27.8274 66.2702 28.1224 66.5685 28.3345C66.8701 28.5466 67.2414 28.6527 67.6822 28.6527ZM74.6225 25.4659V30H73.136V22.3636H74.5629V23.6065H74.6573C74.833 23.2022 75.1081 22.8774 75.4826 22.6321C75.8604 22.3868 76.3361 22.2642 76.9094 22.2642C77.4298 22.2642 77.8855 22.3736 78.2766 22.5923C78.6677 22.8078 78.971 23.1293 79.1864 23.5568C79.4019 23.9844 79.5096 24.513 79.5096 25.1428V30H78.0231V25.3217C78.0231 24.7682 77.8789 24.3357 77.5906 24.0241C77.3022 23.7093 76.9061 23.5518 76.4023 23.5518C76.0576 23.5518 75.7511 23.6264 75.4826 23.7756C75.2174 23.9247 75.007 24.1435 74.8512 24.4318C74.6987 24.7169 74.6225 25.0616 74.6225 25.4659ZM94.1721 24.9091C94.1721 25.9962 93.9732 26.9309 93.5755 27.7131C93.1777 28.492 92.6325 29.0919 91.9398 29.5128C91.2504 29.9304 90.4666 30.1392 89.5882 30.1392C88.7066 30.1392 87.9194 29.9304 87.2267 29.5128C86.5373 29.0919 85.9938 28.4903 85.5961 27.7081C85.1983 26.9259 84.9995 25.9929 84.9995 24.9091C84.9995 23.822 85.1983 22.889 85.5961 22.1101C85.9938 21.3279 86.5373 20.728 87.2267 20.3104C87.9194 19.8894 88.7066 19.679 89.5882 19.679C90.4666 19.679 91.2504 19.8894 91.9398 20.3104C92.6325 20.728 93.1777 21.3279 93.5755 22.1101C93.9732 22.889 94.1721 23.822 94.1721 24.9091ZM92.6507 24.9091C92.6507 24.0805 92.5165 23.3828 92.248 22.8161C91.9829 22.246 91.6183 21.8151 91.1543 21.5234C90.6936 21.2285 90.1716 21.081 89.5882 21.081C89.0016 21.081 88.4779 21.2285 88.0172 21.5234C87.5565 21.8151 87.1919 22.246 86.9235 22.8161C86.6583 23.3828 86.5257 24.0805 86.5257 24.9091C86.5257 25.7377 86.6583 26.437 86.9235 27.0071C87.1919 27.5739 87.5565 28.0047 88.0172 28.2997C88.4779 28.5914 89.0016 28.7372 89.5882 28.7372C90.1716 28.7372 90.6936 28.5914 91.1543 28.2997C91.6183 28.0047 91.9829 27.5739 92.248 27.0071C92.5165 26.437 92.6507 25.7377 92.6507 24.9091ZM100.805 26.8331V22.3636H102.297V30H100.835V28.6776H100.756C100.58 29.0852 100.298 29.425 99.9105 29.6967C99.526 29.9652 99.0471 30.0994 98.4737 30.0994C97.9832 30.0994 97.549 29.9917 97.1712 29.7763C96.7966 29.5575 96.5017 29.2344 96.2862 28.8068C96.0741 28.3793 95.968 27.8506 95.968 27.2209V22.3636H97.4545V27.0419C97.4545 27.5623 97.5987 27.9766 97.8871 28.2848C98.1754 28.593 98.55 28.7472 99.0107 28.7472C99.2891 28.7472 99.5658 28.6776 99.8409 28.5384C100.119 28.3991 100.35 28.1887 100.532 27.907C100.718 27.6252 100.809 27.2673 100.805 26.8331ZM107.859 22.3636V23.5568H103.688V22.3636H107.859ZM104.806 20.5341H106.293V27.7578C106.293 28.0462 106.336 28.2633 106.422 28.4091C106.508 28.5516 106.619 28.6494 106.755 28.7024C106.894 28.7521 107.045 28.777 107.208 28.777C107.327 28.777 107.431 28.7687 107.521 28.7521C107.61 28.7356 107.68 28.7223 107.73 28.7124L107.998 29.9403C107.912 29.9735 107.789 30.0066 107.63 30.0398C107.471 30.0762 107.272 30.0961 107.034 30.0994C106.642 30.1061 106.278 30.0365 105.94 29.8906C105.602 29.7448 105.328 29.5194 105.119 29.2145C104.911 28.9096 104.806 28.5268 104.806 28.0661V20.5341Z" fill="black"/>
<path opacity="0.4" d="M20 21.3352C20 19.497 21.5227 18 23.3934 18H27.1142C28.9811 18 30.5 19.4925 30.5 21.3277V29.6648C30.5 31.5037 28.9773 33 27.1058 33H23.3865C21.5189 33 20 31.5075 20 29.6722V28.9672V21.3352Z" fill="#200E32"/>
<path d="M34.8339 25.091L32.6996 22.9093C32.479 22.6843 32.124 22.6843 31.9041 22.9108C31.685 23.1373 31.6857 23.5025 31.9056 23.7275L33.075 24.9223H31.9538H25.6611C25.3506 24.9223 25.0986 25.181 25.0986 25.4998C25.0986 25.8193 25.3506 26.0773 25.6611 26.0773H33.075L31.9056 27.272C31.6857 27.497 31.685 27.8623 31.9041 28.0888C32.0144 28.202 32.1583 28.259 32.303 28.259C32.4461 28.259 32.59 28.202 32.6996 28.0903L34.8339 25.9093C34.9398 25.8005 34.9997 25.6535 34.9997 25.4998C34.9997 25.3468 34.9398 25.1998 34.8339 25.091Z" fill="#200E32"/>
</svg>
