<svg width="31" height="31" viewBox="0 0 31 31" fill="none" xmlns="http://www.w3.org/2000/svg">
<g clip-path="url(#clip0_168_1324)">
<path d="M30.6657 13.8401C29.9949 13.7183 29.3452 13.5524 28.7343 13.347C24.2566 11.8412 21.7254 8.18278 20.8926 3.47314C20.8135 3.02697 20.1699 3.02691 20.0908 3.47314C19.1229 8.94573 15.9016 12.8158 10.3455 13.8471C9.90362 13.929 9.90374 14.5658 10.3457 14.6476C15.8505 15.6658 19.1282 19.5286 20.0928 24.9575C20.1535 25.2996 20.5147 25.3013 20.4941 25.2934C20.5898 25.2932 20.6823 25.2594 20.7556 25.1979C20.8288 25.1363 20.878 25.0509 20.8946 24.9567C21.3857 22.1571 22.7644 18.3535 26.5446 16.1328C27.7522 15.424 29.1391 14.9222 30.6666 14.6411C30.7604 14.6239 30.8451 14.5744 30.9061 14.5011C30.9671 14.4279 31.0005 14.3355 31.0004 14.2402C31.0003 14.1449 30.9667 14.0526 30.9055 13.9795C30.8444 13.9064 30.7595 13.857 30.6657 13.8401Z" fill="#F4A32C"/>
<path d="M30.6657 13.8401C29.9949 13.7183 29.3452 13.5524 28.7343 13.347C24.2566 11.8412 21.7254 8.18278 20.8926 3.47314C20.8135 3.02697 20.1699 3.02691 20.0908 3.47314C19.1229 8.94573 15.9016 12.8158 10.3455 13.8471C9.90362 13.929 9.90374 14.5658 10.3457 14.6476C15.8505 15.6658 19.1282 19.5286 20.0928 24.9575C20.1535 25.2996 20.5147 25.3013 20.4941 25.2934C20.5898 25.2932 20.6823 25.2594 20.7556 25.1979C20.8288 25.1363 20.878 25.0509 20.8946 24.9567C21.3857 22.1571 22.7644 18.3535 26.5446 16.1328C27.7522 15.424 29.1391 14.9222 30.6666 14.6411C30.7604 14.6239 30.8451 14.5744 30.9061 14.5011C30.9671 14.4279 31.0005 14.3355 31.0004 14.2402C31.0003 14.1449 30.9667 14.0526 30.9055 13.9795C30.8444 13.9064 30.7595 13.857 30.6657 13.8401Z" fill="black"/>
<path d="M14.5996 12.2612C13.2953 13.0586 11.8489 13.568 10.3455 13.847C9.90362 13.929 9.90374 14.5658 10.3457 14.6476C15.8505 15.6658 19.1282 19.5285 20.0928 24.9575C20.1535 25.2995 20.5147 25.3013 20.4941 25.2933C20.5898 25.2932 20.6823 25.2594 20.7556 25.1978C20.8288 25.1362 20.878 25.0509 20.8946 24.9566C21.1664 23.4068 21.7113 21.5496 22.7841 19.8234C21.3286 15.7734 18.5483 13.2524 14.5996 12.2612Z" fill="#4A5C6A"/>
<path d="M12.7829 24.4011C11.1989 23.8758 10.1512 22.6954 9.64135 21.064C9.54974 20.7711 9.24101 20.7744 9.25276 20.7784C9.16606 20.7784 9.08163 20.8061 9.01175 20.8574C8.94188 20.9087 8.89022 20.981 8.86429 21.0638C8.37035 22.6405 7.33669 23.8469 5.72269 24.3995C5.35693 24.5248 5.35657 25.0444 5.72275 25.1698C7.32628 25.7187 8.36665 26.9155 8.86477 28.5072C8.95668 28.8007 9.26487 28.7964 9.25403 28.7926C9.34088 28.7925 9.4254 28.7646 9.49525 28.7129C9.56509 28.6613 9.61661 28.5887 9.64226 28.5058C10.0106 27.3144 10.6605 26.3932 11.5738 25.7679L11.5738 25.7678C12.5723 25.0838 13.0625 25.2823 13.0618 24.7869C13.0617 24.7014 13.0347 24.6182 12.9846 24.549C12.9346 24.4797 12.864 24.428 12.7829 24.4011Z" fill="black"/>
<path d="M7.34571 23.5176C7.33427 23.5136 7.32361 23.5082 7.31271 23.5033C6.84438 23.9057 6.30685 24.1995 5.72269 24.3995C5.35693 24.5248 5.35657 25.0444 5.72275 25.1698C7.32628 25.7187 8.36665 26.9156 8.86477 28.5072C8.95668 28.8008 9.26487 28.7965 9.25403 28.7927C9.82729 28.7917 9.52237 28.1069 10.4776 26.8244C9.96951 25.2292 8.92326 24.0576 7.34571 23.5176Z" fill="#4A5C6A"/>
<path d="M7.33562 5.83005C5.74541 5.30269 4.70213 4.11773 4.19402 2.49295C4.10248 2.20009 3.79381 2.20336 3.80549 2.20735C3.71879 2.20736 3.63436 2.23504 3.56449 2.28636C3.49462 2.33769 3.44295 2.40998 3.41702 2.49271C2.92411 4.06614 1.89263 5.27454 0.275428 5.82848C-0.0903357 5.95375 -0.090699 6.47336 0.275489 6.59876C1.88295 7.14907 2.92066 8.34874 3.41751 9.9361C3.50942 10.2296 3.81772 10.2254 3.8067 10.2216C3.89354 10.2214 3.97806 10.1935 4.04791 10.1419C4.11776 10.0903 4.1693 10.0178 4.19499 9.93483C4.80488 7.96239 6.03307 7.28947 6.12668 7.1969C7.12231 6.51466 7.61522 6.70865 7.61456 6.21592C7.61443 6.13047 7.58743 6.04722 7.53736 5.97797C7.4873 5.90871 7.41672 5.85697 7.33562 5.83005Z" fill="black"/>
<path d="M1.74109 5.03424C0.618789 5.93148 8.50968e-09 5.68064 8.50968e-09 6.21363C-1.73456e-05 6.29851 0.0265088 6.38127 0.0758646 6.45032C0.12522 6.51937 0.194934 6.57125 0.275246 6.59871C1.88271 7.14902 2.92042 8.3487 3.41727 9.93605C3.50918 10.2296 3.81748 10.2253 3.80646 10.2215C4.35108 10.2206 4.0894 9.58464 4.95352 8.35742C4.06391 5.61095 1.9421 5.16563 1.74109 5.03424Z" fill="#4A5C6A"/>
</g>
<defs>
<clipPath id="clip0_168_1324">
<rect width="31" height="31" fill="white"/>
</clipPath>
</defs>
</svg>
