<svg width="27" height="25" viewBox="0 0 27 25" fill="none" xmlns="http://www.w3.org/2000/svg">
<path d="M13.5 5.27344C13.2089 5.27344 12.9727 5.50969 12.9727 5.80078C12.9727 6.09187 13.2089 6.32812 13.5 6.32812C13.7911 6.32812 14.0273 6.09187 14.0273 5.80078C14.0273 5.50969 13.7911 5.27344 13.5 5.27344ZM4.74609 14.7656C5.03719 14.7656 5.27344 14.5294 5.27344 14.2383C5.27344 13.9472 5.03719 13.7109 4.74609 13.7109C4.455 13.7109 4.21875 13.9472 4.21875 14.2383C4.21875 14.5294 4.455 14.7656 4.74609 14.7656Z" fill="black"/>
<path d="M17.7188 0C12.9712 0 9.07464 3.27322 8.77326 7.39621C4.25197 7.62296 0 10.8833 0 15.293C0 17.1358 0.729211 18.9214 2.05664 20.3361C2.31926 21.4188 2.00043 22.5664 1.2092 23.3576C1.13542 23.4314 1.08517 23.5253 1.0648 23.6276C1.04443 23.7299 1.05487 23.836 1.09478 23.9323C1.13469 24.0287 1.20229 24.1111 1.28902 24.169C1.37576 24.2269 1.47773 24.2578 1.58203 24.2578C3.08602 24.2578 4.53537 23.668 5.61231 22.6288C6.66141 22.9864 8.03023 23.2031 9.28125 23.2031C14.0282 23.2031 17.9243 19.9307 18.2265 15.8086C19.3306 15.7595 20.4791 15.5556 21.3877 15.246C22.4646 16.2852 23.914 16.875 25.418 16.875C25.5223 16.875 25.6242 16.8441 25.711 16.7862C25.7977 16.7282 25.8653 16.6459 25.9052 16.5495C25.9451 16.4531 25.9556 16.3471 25.9352 16.2448C25.9148 16.1425 25.8646 16.0486 25.7908 15.9748C24.9996 15.1836 24.6807 14.036 24.9434 12.9533C26.2708 11.5385 27 9.75296 27 7.91016C27 3.32822 22.4205 0 17.7188 0ZM9.28125 22.1484C8.03661 22.1484 6.61837 21.9041 5.66831 21.5262C5.56886 21.4865 5.45971 21.4781 5.35536 21.502C5.251 21.5259 5.1564 21.581 5.08412 21.66C4.44741 22.3561 3.61953 22.8414 2.71745 23.0645C3.22196 22.0978 3.33703 20.9746 3.03903 19.9257C3.01516 19.8419 2.97086 19.7653 2.91009 19.7029C1.71366 18.4706 1.05469 16.9045 1.05469 15.293C1.05469 11.5768 4.82193 8.4375 9.28125 8.4375C13.4922 8.4375 17.1914 11.3657 17.1914 15.293C17.1914 19.0732 13.6429 22.1484 9.28125 22.1484ZM24.0899 12.3201C24.0292 12.3826 23.9849 12.4592 23.961 12.543C23.663 13.5919 23.778 14.7151 24.2825 15.6817C23.3805 15.4588 22.5526 14.9732 21.9158 14.2772C21.8435 14.1983 21.7489 14.1432 21.6446 14.1193C21.5403 14.0954 21.4311 14.1038 21.3317 14.1433C20.5083 14.4708 19.3337 14.6977 18.2249 14.7524C18.0708 12.7582 17.076 10.8838 15.3753 9.49219H22.2539C22.5452 9.49219 22.7812 9.2561 22.7812 8.96484C22.7812 8.67359 22.5452 8.4375 22.2539 8.4375H13.7552C12.5582 7.82815 11.2141 7.47283 9.83064 7.39826C10.1336 3.85641 13.5558 1.05469 17.7188 1.05469C22.1781 1.05469 25.9453 4.19402 25.9453 7.91016C25.9453 9.52167 25.2863 11.0878 24.0899 12.3201Z" fill="black"/>
<path d="M13.5 13.7109H6.85547C6.56422 13.7109 6.32812 13.947 6.32812 14.2383C6.32812 14.5295 6.56422 14.7656 6.85547 14.7656H13.5C13.7913 14.7656 14.0273 14.5295 14.0273 14.2383C14.0273 13.947 13.7913 13.7109 13.5 13.7109ZM13.5 16.875H4.74609C4.45484 16.875 4.21875 17.1111 4.21875 17.4023C4.21875 17.6936 4.45484 17.9297 4.74609 17.9297H13.5C13.7913 17.9297 14.0273 17.6936 14.0273 17.4023C14.0273 17.1111 13.7913 16.875 13.5 16.875ZM22.2539 5.27344H15.6094C15.3181 5.27344 15.082 5.50953 15.082 5.80078C15.082 6.09203 15.3181 6.32812 15.6094 6.32812H22.2539C22.5452 6.32812 22.7812 6.09203 22.7812 5.80078C22.7812 5.50953 22.5452 5.27344 22.2539 5.27344Z" fill="black"/>
</svg>
