<svg width="96" height="96" viewBox="0 0 96 96" fill="none" xmlns="http://www.w3.org/2000/svg">
<path d="M41.2113 63.2314L69.5298 78.1305C70.6254 78.707 71.981 78.2861 72.5575 77.1904L93.86 36.7009C94.4365 35.6052 94.0156 34.2496 92.9199 33.6732L64.6014 18.7741C63.5057 18.1976 62.1502 18.6185 61.5737 19.7142L40.2711 60.2037C39.6947 61.2994 40.1156 62.655 41.2113 63.2314Z" fill="#E8CA95"/>
<path d="M69.8952 72.423L45.7017 59.6843L64.2342 24.4897L88.4269 37.2285L69.8952 72.423Z" fill="#F94668"/>
<path d="M45.7056 59.739L52.2816 47.2515L76.4758 59.991L69.9006 72.4785L45.7056 59.739Z" fill="#D63866"/>
<path d="M76.446 61.0874C76.263 61.088 76.0826 61.0434 75.921 60.9577L51.729 48.2317C51.4649 48.0924 51.267 47.854 51.1787 47.5688C51.0905 47.2836 51.1191 46.9751 51.2584 46.711C51.3976 46.447 51.636 46.2491 51.9212 46.1608C52.2064 46.0725 52.5149 46.1012 52.779 46.2404L76.9725 58.9672C77.1949 59.0844 77.3716 59.2727 77.4745 59.5021C77.5774 59.7315 77.6004 59.9888 77.54 60.2328C77.4796 60.4769 77.3391 60.6936 77.1411 60.8485C76.9431 61.0034 76.6989 61.0875 76.4475 61.0874H76.446Z" fill="#6D383E"/>
<path d="M29.3204 65.8342L60.6257 72.4598C61.8369 72.7161 63.0267 71.942 63.283 70.7308L72.7562 25.9708C73.0126 24.7595 72.2385 23.5698 71.0272 23.3134L39.7219 16.6878C38.5107 16.4315 37.321 17.2056 37.0646 18.4168L27.5914 63.1768C27.335 64.3881 28.1091 65.5778 29.3204 65.8342Z" fill="#EDD5A4"/>
<path d="M59.412 66.8452L32.6768 61.1865L40.9088 22.2937L67.644 27.9525L59.412 66.8452Z" fill="#FFB31A"/>
<path d="M32.6323 61.1639L35.5521 47.3677L62.2888 53.0264L59.3683 66.8227L32.6323 61.1639Z" fill="#EF9325"/>
<path d="M62.3248 54.1567C62.2462 54.1565 62.1678 54.1484 62.0908 54.1327L35.348 48.471C35.2035 48.4404 35.0663 48.3816 34.9444 48.2981C34.8226 48.2145 34.7183 48.1077 34.6377 47.9838C34.5571 47.86 34.5017 47.7215 34.4746 47.5762C34.4475 47.4309 34.4493 47.2817 34.4799 47.1371C34.5105 46.9925 34.5693 46.8554 34.6529 46.7335C34.7364 46.6116 34.8432 46.5074 34.9671 46.4268C35.2172 46.264 35.5218 46.2072 35.8138 46.269L62.5581 51.9307C62.8304 51.9879 63.0719 52.144 63.2359 52.3689C63.3999 52.5938 63.4747 52.8714 63.4459 53.1482C63.417 53.425 63.2866 53.6813 63.0799 53.8676C62.8731 54.0539 62.6046 54.1569 62.3263 54.1567H62.3248Z" fill="#6D383E"/>
<path d="M21.0107 71.5541L52.9919 70.4931C54.2293 70.4521 55.1991 69.4157 55.1581 68.1783L53.6412 22.452C53.6001 21.2146 52.5638 20.2447 51.3264 20.2858L19.3452 21.3467C18.1078 21.3877 17.138 22.4241 17.179 23.6615L18.6959 69.3879C18.737 70.6253 19.7733 71.5951 21.0107 71.5541Z" fill="#F4E2BA"/>
<path d="M50.1523 64.9356L22.8433 65.8379L21.5308 26.1104L48.8405 25.2081L50.1523 64.9356Z" fill="#646B99"/>
<path d="M22.3535 51.696L49.6633 50.7937L50.1283 64.887L22.8185 65.7892L22.3535 51.696Z" fill="#596184"/>
<path d="M22.3604 52.8435C22.0621 52.8483 21.774 52.7343 21.5597 52.5267C21.3453 52.3191 21.2222 52.0349 21.2174 51.7365C21.2127 51.4381 21.3266 51.1501 21.5342 50.9357C21.7418 50.7214 22.0261 50.5983 22.3244 50.5935L49.6469 49.6935C49.7947 49.6886 49.9419 49.7128 50.0803 49.7648C50.2187 49.8168 50.3455 49.8955 50.4534 49.9965C50.5614 50.0975 50.6484 50.2187 50.7094 50.3533C50.7705 50.4879 50.8045 50.6333 50.8094 50.781C50.8144 50.9287 50.7901 51.076 50.7381 51.2144C50.6862 51.3527 50.6074 51.4795 50.5064 51.5875C50.4055 51.6954 50.2842 51.7824 50.1496 51.8435C50.015 51.9046 49.8697 51.9386 49.7219 51.9435L22.4002 52.8435H22.3604Z" fill="#6D383E"/>
<path d="M15.8165 79.3129L46.8553 71.5338C48.0562 71.2328 48.7858 70.0152 48.4848 68.8143L37.3623 24.4353C37.0613 23.2344 35.8437 22.5048 34.6428 22.8058L3.60403 30.585C2.40309 30.8859 1.67353 32.1035 1.97452 33.3044L13.097 77.6834C13.398 78.8843 14.6156 79.6139 15.8165 79.3129Z" fill="#F9EACD"/>
<path d="M43.3399 67.0154L16.8221 73.6852L7.12012 35.1112L33.6364 28.4407L43.3399 67.0154Z" fill="#55B78B"/>
<path d="M13.4224 60.0021L39.9386 53.3324L43.3811 67.0161L16.8649 73.6859L13.4224 60.0021Z" fill="#508C6D"/>
<path d="M13.3963 61.125C13.1217 61.125 12.8566 61.0247 12.651 60.8429C12.4453 60.6611 12.3131 60.4103 12.2795 60.1379C12.2458 59.8654 12.313 59.5901 12.4682 59.3637C12.6235 59.1373 12.8562 58.9755 13.1225 58.9087L39.6343 52.2435C39.9237 52.1707 40.2302 52.2158 40.4863 52.369C40.7424 52.5222 40.9272 52.7708 41 53.0602C41.0728 53.3496 41.0277 53.6561 40.8745 53.9123C40.7213 54.1684 40.4727 54.3532 40.1833 54.426L13.6715 61.0935C13.5813 61.1149 13.4889 61.1255 13.3963 61.125Z" fill="#6D383E"/>
</svg>
