<svg width="20" height="20" viewBox="0 0 20 20" fill="none" xmlns="http://www.w3.org/2000/svg">
<path d="M15.8489 12.0287C15.6686 8.42722 13.8776 4.80074 11.234 2.76356C11.1698 4.1027 10.768 6.57241 8.80164 8.15132C8.61573 8.30084 8.35093 8.28643 8.18203 8.12722C8.17825 8.12391 7.08171 7.10414 6.70044 5.17279C5.74634 6.47177 4.14452 9.11274 4.14452 12.2037C4.14452 19.5722 16.2209 19.472 15.8489 12.0287ZM16.7923 11.9843C17.2282 20.7044 3.19727 20.8563 3.19727 12.2037C3.19727 7.61226 6.44249 3.95671 6.68296 3.69191C6.98037 3.35057 7.50714 3.56222 7.51706 3.98317C7.5551 5.57531 8.17423 6.62367 8.54841 7.11501C10.583 5.13665 10.2844 1.9115 10.2837 1.90182L10.2856 1.90158C10.2539 1.52173 10.669 1.25929 10.9997 1.45961C14.4629 3.55868 16.5941 8.02068 16.7923 11.9843Z" fill="white"/>
</svg>
