<svg width="29" height="29" viewBox="0 0 29 29" fill="none" xmlns="http://www.w3.org/2000/svg">
<g clip-path="url(#clip0_168_1333)">
<path d="M0.641654 11.2544C0.73564 11.3162 0.85031 11.3382 0.960468 11.3154C1.07062 11.2927 1.16726 11.2272 1.22913 11.1333C1.32686 10.9851 1.44219 10.8492 1.5726 10.7287C2.38732 9.97503 3.67198 9.96495 4.49729 10.706C4.92827 11.0929 5.18412 11.6228 5.21771 12.1982C5.25011 12.7533 5.49411 13.2852 5.90459 13.6958C5.95197 13.7432 6.00824 13.7808 6.07019 13.8064C6.13213 13.832 6.19853 13.8452 6.26556 13.8451C6.3326 13.8452 6.399 13.8321 6.46096 13.8064C6.52292 13.7808 6.5792 13.7432 6.62659 13.6958L9.50518 10.8172C9.68184 10.6404 9.96232 10.6293 10.1521 10.7838C10.1637 10.7964 10.1743 10.8097 10.1866 10.822L12.8009 13.4363C12.5921 13.5702 12.3577 13.6489 12.118 13.6629C11.6426 13.6907 11.1755 13.8321 10.7668 14.072C10.6718 14.1299 10.6033 14.2228 10.5762 14.3307C10.549 14.4386 10.5654 14.5529 10.6217 14.6489C10.678 14.7449 10.7698 14.8149 10.8773 14.8438C10.9848 14.8727 11.0993 14.8583 11.1962 14.8035C11.4923 14.6305 11.8251 14.5298 12.1675 14.5097C12.7227 14.4772 13.2546 14.2332 13.6651 13.8228C13.9284 13.5701 13.8079 13.1851 13.5515 12.9799L10.7889 10.2173C10.594 10.0428 10.6004 9.72253 10.7864 9.53827L13.3972 6.92748C13.5239 7.1315 13.5983 7.35897 13.6119 7.59154C13.6587 8.39147 14.014 9.12791 14.6123 9.66521C15.7601 10.6959 17.5466 10.6821 18.6796 9.63428C19.29 9.06963 19.635 8.30192 19.6512 7.47248C19.6674 6.64275 19.3531 5.86269 18.7664 5.27595C18.2449 4.75405 17.5503 4.44126 16.8138 4.39672C16.5779 4.38239 16.3482 4.30774 16.1434 4.18126L18.7539 1.57086C18.7987 1.52582 18.852 1.4901 18.9107 1.46578C18.9694 1.44147 19.0323 1.42904 19.0958 1.42921C19.2249 1.42921 19.3464 1.4795 19.4377 1.57086L22.3774 4.51057C22.457 4.59009 22.5649 4.63476 22.6773 4.63476C22.7898 4.63476 22.8977 4.59009 22.9773 4.51057L23.0962 4.39162C23.5053 3.98251 23.7492 3.44901 23.7832 2.88934C23.8153 2.35974 24.0402 1.86023 24.4156 1.48522C24.8376 1.06308 25.3983 0.837764 25.9958 0.848696C26.5925 0.860307 27.1448 1.10868 27.5514 1.54809C28.305 2.36276 28.3151 3.64742 27.574 4.47273C27.1871 4.90371 26.6573 5.15956 26.0818 5.19315C25.5266 5.22566 24.9947 5.46961 24.5843 5.88008L24.4656 5.9988C24.386 6.07835 24.3413 6.18623 24.3413 6.29871C24.3413 6.4112 24.386 6.51908 24.4656 6.59863L27.4052 9.53833C27.5938 9.72689 27.5938 10.0336 27.4052 10.2222L26.7602 10.8672C26.6833 10.9473 26.6408 11.0544 26.6419 11.1654C26.643 11.2765 26.6876 11.3826 26.7661 11.4612C26.8447 11.5397 26.9509 11.5843 27.0619 11.5854C27.173 11.5864 27.28 11.5439 27.3601 11.4669L28.005 10.822C28.5243 10.3026 28.5243 9.45779 28.005 8.93851L25.3797 6.31321C25.6052 6.15094 25.865 6.0555 26.1314 6.03992C26.9313 5.99314 27.6678 5.63777 28.2052 5.03942C29.2358 3.89149 29.2221 2.10487 28.1739 0.972002C27.6093 0.361756 26.8416 0.0167583 26.0123 0.000615693C25.1821 -0.0156402 24.4025 0.298659 23.8158 0.885399C23.2939 1.40689 22.9811 2.10152 22.9365 2.83797C22.9201 3.1082 22.8245 3.37039 22.6626 3.59616L20.0376 0.97104C19.5182 0.451815 18.6734 0.451758 18.1541 0.97104L15.26 3.86504C15.1678 3.95736 15.1169 4.0801 15.1169 4.2106C15.1169 4.3411 15.1678 4.4639 15.2602 4.55639C15.6693 4.96545 16.2028 5.2094 16.7624 5.24339C17.292 5.27546 17.7916 5.50043 18.1666 5.87578C18.5887 6.29786 18.8147 6.859 18.8031 7.456C18.7915 8.05265 18.5431 8.60512 18.1036 9.01163C17.2889 9.76523 16.0043 9.77515 15.179 9.03417C14.7481 8.6472 14.4923 8.11733 14.4587 7.54198C14.4262 6.98678 14.1822 6.45499 13.7718 6.04451C13.5812 5.85403 13.2713 5.85397 13.0806 6.04451L10.1866 8.93851C9.93967 9.18546 9.8116 9.50605 9.79954 9.8302C9.47448 9.8417 9.15287 9.96982 8.9053 10.2173L6.29105 12.8317C6.15715 12.6229 6.07842 12.3884 6.06443 12.1487C6.01764 11.3487 5.66228 10.6122 5.06393 10.0749C3.91605 9.04437 2.12955 9.05808 0.996564 10.1061C0.815758 10.2731 0.655883 10.4615 0.520443 10.667C0.458652 10.761 0.436709 10.8757 0.459438 10.9858C0.482168 11.096 0.547709 11.1926 0.641654 11.2544Z" fill="black"/>
<path d="M26.0803 13.6633C25.837 13.6486 25.6004 13.5696 25.3909 13.4359L25.9753 12.8516C26.053 12.7717 26.0962 12.6644 26.0954 12.5529C26.0946 12.4414 26.05 12.3348 25.9711 12.2559C25.8923 12.1771 25.7856 12.1325 25.6742 12.1317C25.5627 12.1309 25.4554 12.174 25.3755 12.2518L24.4654 13.1619C24.27 13.354 24.3191 13.6607 24.5267 13.823C24.9358 14.232 25.4693 14.476 26.0289 14.51C26.5586 14.542 27.0581 14.767 27.4331 15.1424C27.8552 15.5645 28.0812 16.1256 28.0696 16.7227C28.0579 17.3193 27.8096 17.8717 27.3701 18.2782C26.5553 19.0319 25.2707 19.0417 24.4455 18.3007C24.0146 17.9138 23.7587 17.384 23.7252 16.8086C23.6926 16.2534 23.4487 15.7216 23.0383 15.3111C22.8761 15.1036 22.5694 15.0547 22.3773 15.25L19.4376 18.1897C19.2609 18.3664 18.9804 18.3776 18.7907 18.223C18.779 18.2104 18.7685 18.1971 18.7562 18.1849L15.8788 15.3075C15.6808 15.1188 15.3536 15.1083 15.1529 15.3113C14.7439 15.7204 14.4999 16.2539 14.4659 16.8135C14.4339 17.3431 14.2089 17.8426 13.8336 18.2176C13.4115 18.6397 12.8506 18.866 12.2533 18.8541C11.6567 18.8425 11.1043 18.5941 10.6978 18.1548C10.2039 17.6209 10.0128 16.8749 10.1865 16.1593C10.1997 16.1052 10.202 16.049 10.1935 15.9939C10.1849 15.9389 10.1656 15.8861 10.1366 15.8385C10.1076 15.791 10.0695 15.7496 10.0245 15.7167C9.97957 15.6839 9.92856 15.6602 9.87443 15.6471C9.64668 15.5916 9.41751 15.7315 9.36223 15.9592C9.12128 16.9517 9.38778 17.9878 10.0752 18.7308C10.6398 19.3411 11.4075 19.6861 12.2368 19.7022C12.2571 19.7026 12.2774 19.7028 12.2976 19.7028C13.1045 19.7028 13.861 19.3898 14.4333 18.8174C14.9552 18.2959 15.268 17.6013 15.3126 16.8649C15.3273 16.6216 15.4062 16.385 15.5399 16.1755L18.1539 18.7895C18.1671 18.8028 18.1807 18.8154 18.1944 18.8281C18.3436 19.0176 18.3311 19.2938 18.1563 19.4685L15.2166 22.4082C14.9875 22.632 15.1071 22.956 15.3356 23.127C15.7447 23.536 16.2782 23.78 16.8378 23.814C17.3674 23.8461 17.8669 24.071 18.242 24.4464C18.664 24.8684 18.8901 25.4296 18.8785 26.0266C18.8669 26.6232 18.6185 27.1755 18.1791 27.5821C17.3645 28.3358 16.0799 28.3458 15.2544 27.6049C14.8235 27.2179 14.5676 26.688 14.534 26.1126C14.5015 25.5573 14.2575 25.0255 13.8471 24.6152C13.6807 24.388 13.3475 24.2679 13.1285 24.4963L10.1888 27.436C10.0003 27.6246 9.69352 27.6246 9.50497 27.436L6.56526 24.4963C6.37897 24.3018 6.06065 24.3514 5.90421 24.5576C5.49515 24.9667 5.2512 25.5002 5.21721 26.0598C5.18513 26.5894 4.96014 27.089 4.58476 27.464C4.16273 27.8861 3.60301 28.111 3.00449 28.1005C2.40784 28.0888 1.85548 27.8404 1.44897 27.401C0.695309 26.5863 0.685397 25.3016 1.42648 24.4763C1.81334 24.0455 2.34315 23.7896 2.91857 23.756C3.47381 23.7235 4.00561 23.4796 4.41609 23.0692C4.62368 22.9069 4.67256 22.6002 4.4772 22.4082L1.53756 19.4685C1.34894 19.2799 1.34894 18.9732 1.53756 18.7846L4.4162 15.906C4.46375 15.8587 4.50144 15.8025 4.5271 15.7405C4.55276 15.6785 4.56587 15.6121 4.56568 15.545C4.56568 15.4087 4.5126 15.2805 4.41598 15.1839C4.00686 14.7748 3.47336 14.5309 2.91375 14.4969C2.38414 14.4648 1.88462 14.2398 1.50957 13.8645C1.2286 13.584 1.02993 13.2318 0.935182 12.8462C0.908435 12.7369 0.83938 12.6428 0.743207 12.5844C0.647033 12.5261 0.531621 12.5083 0.422358 12.5351C0.313095 12.5618 0.218933 12.6309 0.160585 12.727C0.102237 12.8232 0.0844843 12.9386 0.111231 13.0479C0.242847 13.5842 0.519039 14.0741 0.909751 14.4644C1.43125 14.9863 2.12587 15.2991 2.86232 15.3436C3.10554 15.3583 3.34213 15.4373 3.5517 15.571L0.937674 18.1849C0.41845 18.7043 0.41845 19.5492 0.937674 20.0684L3.55204 22.6827C3.34326 22.8166 3.10877 22.8953 2.86906 22.9093C2.06907 22.9562 1.33263 23.3114 0.795393 23.9097C-0.235296 25.0575 -0.221703 26.8441 0.826319 27.977C1.39091 28.5874 2.15862 28.9324 2.98801 28.9486C3.81813 28.9647 4.5979 28.6505 5.18459 28.0638C5.70654 27.5423 6.01935 26.8477 6.06388 26.1112C6.0786 25.868 6.15756 25.6314 6.29123 25.4218L8.90514 28.0358C9.42448 28.555 10.2694 28.555 10.7887 28.0358L13.414 25.4105C13.5762 25.6359 13.6717 25.8957 13.6873 26.1621C13.734 26.9621 14.0894 27.6986 14.6878 28.236C15.2556 28.7457 15.9794 29 16.7033 29C17.443 28.9999 18.1826 28.7344 18.7552 28.2047C19.3654 27.6401 19.7104 26.8724 19.7266 26.0431C19.7427 25.2133 19.4285 24.4333 18.8417 23.8466C18.3202 23.3247 17.6256 23.0119 16.8891 22.9674C16.6189 22.9509 16.3568 22.8553 16.131 22.6935L18.7561 20.0684C19.0026 19.8219 19.1306 19.502 19.1431 19.1784C19.4798 19.1674 19.7997 19.0283 20.0373 18.7895L22.6516 16.1751C22.7855 16.3839 22.8643 16.6184 22.8783 16.8581C22.9251 17.658 23.2804 18.3945 23.8787 18.9318C25.0264 19.9625 26.813 19.9489 27.946 18.9009C28.5563 18.3363 28.9014 17.5686 28.9176 16.7392C28.9337 15.9094 28.6195 15.1293 28.0328 14.5426C27.5114 14.0207 26.8167 13.7078 26.0803 13.6633Z" fill="black"/>
</g>
<defs>
<clipPath id="clip0_168_1333">
<rect width="29" height="29" fill="white"/>
</clipPath>
</defs>
</svg>
