<svg width="17" height="16" viewBox="0 0 17 16" fill="none" xmlns="http://www.w3.org/2000/svg">
<path d="M8.49998 15.1245C8.25793 15.1245 8.02465 15.0368 7.8428 14.8776C7.15602 14.2771 6.49392 13.7127 5.90975 13.215L5.90676 13.2124C4.19408 11.7529 2.71511 10.4924 1.68608 9.2508C0.535798 7.86282 0 6.54671 0 5.10899C0 3.71214 0.478987 2.42342 1.34861 1.48013C2.22862 0.525671 3.43612 0 4.74907 0C5.73038 0 6.62906 0.310249 7.42012 0.922049C7.81932 1.23084 8.18117 1.60879 8.49998 2.04962C8.8189 1.60879 9.18065 1.23084 9.57998 0.922049C10.371 0.310249 11.2697 0 12.251 0C13.5638 0 14.7715 0.525671 15.6515 1.48013C16.5211 2.42342 17 3.71214 17 5.10899C17 6.54668 16.4643 7.86278 15.314 9.25067C14.285 10.4924 12.8061 11.7527 11.0937 13.2121C10.5085 13.7107 9.84537 14.2759 9.15704 14.8778C8.97513 15.0369 8.74165 15.1246 8.49998 15.1245ZM4.74907 0.995826C3.71758 0.995826 2.77 1.40751 2.08064 2.15508C1.38105 2.91397 0.995693 3.96298 0.995693 5.10899C0.995693 6.31818 1.4451 7.3996 2.45274 8.61543C3.42666 9.79062 4.87527 11.0251 6.55256 12.4545L6.55565 12.4571C7.14201 12.9568 7.80674 13.5234 8.49856 14.1283C9.19453 13.5222 9.86028 12.9548 10.4478 12.4543C12.125 11.0248 13.5734 9.79062 14.5474 8.61543C15.5549 7.3996 16.0043 6.31818 16.0043 5.10899C16.0043 3.96295 15.6189 2.91393 14.9193 2.15508C14.2301 1.40751 13.2824 0.995826 12.251 0.995826C11.4954 0.995826 10.8016 1.23605 10.1891 1.70969C9.64317 2.132 9.26289 2.66584 9.0399 3.03938C8.92528 3.23145 8.72347 3.3461 8.49998 3.3461C8.27649 3.3461 8.07469 3.23145 7.96004 3.03938C7.73724 2.66584 7.35694 2.132 6.81088 1.70969C6.19835 1.23605 5.50457 0.995826 4.74907 0.995826Z" fill="white"/>
</svg>
