<svg width="29" height="29" viewBox="0 0 29 29" fill="none" xmlns="http://www.w3.org/2000/svg">
<g clip-path="url(#clip0_43_1495)">
<path d="M27.9379 10.9584L18.7727 1.79196C17.6384 0.660951 16.1019 0.0258331 14.5 0.0258331C12.8982 0.0258331 11.3617 0.660951 10.2273 1.79196L1.06214 10.9584C0.72432 11.294 0.456486 11.6934 0.274164 12.1333C0.0918421 12.5733 -0.00134173 13.045 1.4596e-05 13.5213V25.3835C1.4596e-05 26.3449 0.381933 27.2669 1.06175 27.9467C1.74157 28.6265 2.66361 29.0085 3.62502 29.0085H25.375C26.3364 29.0085 27.2585 28.6265 27.9383 27.9467C28.6181 27.2669 29 26.3449 29 25.3835V13.5213C29.0014 13.045 28.9082 12.5733 28.7259 12.1333C28.5435 11.6934 28.2757 11.294 27.9379 10.9584ZM18.125 26.5918H10.875V21.8382C10.875 20.8768 11.2569 19.9548 11.9368 19.275C12.6166 18.5951 13.5386 18.2132 14.5 18.2132C15.4614 18.2132 16.3835 18.5951 17.0633 19.275C17.7431 19.9548 18.125 20.8768 18.125 21.8382V26.5918ZM26.5834 25.3835C26.5834 25.7039 26.456 26.0113 26.2294 26.2379C26.0028 26.4645 25.6955 26.5918 25.375 26.5918H20.5417V21.8382C20.5417 20.2359 19.9052 18.6991 18.7721 17.5661C17.6391 16.4331 16.1024 15.7965 14.5 15.7965C12.8977 15.7965 11.3609 16.4331 10.2279 17.5661C9.09488 18.6991 8.45835 20.2359 8.45835 21.8382V26.5918H3.62502C3.30455 26.5918 2.9972 26.4645 2.77059 26.2379C2.54399 26.0113 2.41668 25.7039 2.41668 25.3835V13.5213C2.4178 13.201 2.54499 12.8941 2.77072 12.667L11.9359 3.50417C12.6171 2.82621 13.539 2.4456 14.5 2.4456C15.461 2.4456 16.383 2.82621 17.0641 3.50417L26.2293 12.6706C26.4542 12.8968 26.5813 13.2023 26.5834 13.5213V25.3835Z" fill="white"/>
</g>
<defs>
<clipPath id="clip0_43_1495">
<rect width="29" height="29" fill="white"/>
</clipPath>
</defs>
</svg>
