<svg width="32" height="32" viewBox="0 0 32 32" fill="none" xmlns="http://www.w3.org/2000/svg">
<path d="M22.0467 9.24612C20.466 7.6463 18.3579 6.74949 16.1108 6.72074C13.8412 6.69168 11.6894 7.5568 10.0566 9.15693C8.42505 10.7558 7.51711 12.8861 7.50023 15.1554C7.47748 18.2119 9.10973 21.0599 11.7599 22.5879C12.2164 22.8512 12.5 23.3508 12.5 23.8917V27.2201C12.5 29.15 14.07 30.7201 16 30.7201C17.9299 30.7201 19.5 29.15 19.5 27.2201V23.8807C19.5 23.3476 19.7886 22.8492 20.2533 22.5802C22.8727 21.0636 24.5 18.2433 24.5 15.22C24.5 12.9689 23.6287 10.8473 22.0467 9.24612ZM18.5 27.2201C18.5 28.5986 17.3785 29.72 16 29.72C14.6215 29.72 13.5 28.5986 13.5 27.2201V26.72H18.5V27.2201ZM19.7522 21.7148C18.9798 22.162 18.5 22.9919 18.5 23.8807V25.72H13.5V23.8917C13.5 22.9944 13.0247 22.1629 12.2595 21.7216C9.92055 20.373 8.48011 17.8598 8.50023 15.1628C8.51511 13.1616 9.31648 11.2823 10.7565 9.87105C12.1978 8.45868 14.0954 7.69387 16.098 7.72062C20.1795 7.7728 23.5 11.137 23.5 15.22C23.5 17.8877 22.0639 20.3763 19.7522 21.7148Z" fill="#231F20"/>
<path d="M20.3336 10.3757C20.2345 10.2892 20.1053 10.2452 19.9739 10.2533C19.8426 10.2613 19.7198 10.3208 19.632 10.4189C19.5443 10.5169 19.4987 10.6456 19.5052 10.777C19.5116 10.9084 19.5696 11.0319 19.6666 11.1209C20.8318 12.1638 21.5001 13.6579 21.5001 15.22C21.5001 16.7821 20.8318 18.2762 19.6666 19.3192C19.5696 19.4081 19.5116 19.5317 19.5052 19.6631C19.4987 19.7945 19.5443 19.9232 19.632 20.0212C19.7198 20.1192 19.8426 20.1787 19.9739 20.1868C20.1053 20.1949 20.2345 20.1509 20.3336 20.0643C21.7104 18.8318 22.5001 17.0662 22.5001 15.22C22.5001 13.3738 21.7104 11.6082 20.3336 10.3757ZM16.0001 5.64C16.1327 5.64 16.2598 5.58732 16.3536 5.49355C16.4474 5.39978 16.5001 5.27261 16.5001 5.14V1.78C16.5001 1.64739 16.4474 1.52021 16.3536 1.42645C16.2598 1.33268 16.1327 1.28 16.0001 1.28C15.8675 1.28 15.7403 1.33268 15.6465 1.42645C15.5527 1.52021 15.5001 1.64739 15.5001 1.78V5.14C15.5001 5.27261 15.5527 5.39978 15.6465 5.49355C15.7403 5.58732 15.8675 5.64 16.0001 5.64ZM23.1277 8.59237C23.1934 8.59246 23.2584 8.57957 23.3191 8.55444C23.3798 8.5293 23.4349 8.49243 23.4812 8.44594L25.8572 6.07006C25.951 5.97629 26.0036 5.84911 26.0036 5.7165C26.0036 5.58389 25.951 5.45671 25.8572 5.36294C25.7634 5.26917 25.6362 5.21649 25.5036 5.21649C25.371 5.21649 25.2438 5.26917 25.1501 5.36294L22.7741 7.73881C22.7042 7.80874 22.6566 7.89783 22.6373 7.99482C22.618 8.09182 22.6279 8.19235 22.6657 8.28372C22.7036 8.37508 22.7677 8.45318 22.8499 8.50812C22.9321 8.56306 23.0288 8.59238 23.1277 8.59237ZM29.4401 14.72H26.0801C25.9475 14.72 25.8203 14.7727 25.7265 14.8664C25.6327 14.9602 25.5801 15.0874 25.5801 15.22C25.5801 15.3526 25.6327 15.4798 25.7265 15.5736C25.8203 15.6673 25.9475 15.72 26.0801 15.72H29.4401C29.5727 15.72 29.6998 15.6673 29.7936 15.5736C29.8874 15.4798 29.9401 15.3526 29.9401 15.22C29.9401 15.0874 29.8874 14.9602 29.7936 14.8664C29.6998 14.7727 29.5727 14.72 29.4401 14.72ZM6.42006 15.22C6.42006 15.0874 6.36738 14.9602 6.27361 14.8664C6.17984 14.7727 6.05267 14.72 5.92006 14.72H2.56006C2.42745 14.72 2.30027 14.7727 2.20651 14.8664C2.11274 14.9602 2.06006 15.0874 2.06006 15.22C2.06006 15.3526 2.11274 15.4798 2.20651 15.5736C2.30027 15.6673 2.42745 15.72 2.56006 15.72H5.92006C6.05267 15.72 6.17984 15.6673 6.27361 15.5736C6.36738 15.4798 6.42006 15.3526 6.42006 15.22ZM8.51887 8.44594C8.61656 8.54356 8.74443 8.59237 8.87243 8.59237C9.00043 8.59237 9.12837 8.54356 9.226 8.44594C9.27243 8.39951 9.30926 8.34439 9.33439 8.28372C9.35952 8.22306 9.37245 8.15804 9.37245 8.09237C9.37245 8.02671 9.35952 7.96169 9.33439 7.90103C9.30926 7.84036 9.27243 7.78524 9.226 7.73881L6.85006 5.36294C6.75629 5.26917 6.62911 5.21649 6.4965 5.21649C6.36388 5.21649 6.2367 5.26917 6.14293 5.36294C6.04916 5.45671 5.99648 5.58389 5.99648 5.7165C5.99648 5.84911 6.04916 5.97629 6.14293 6.07006L8.51887 8.44594ZM23.4812 21.9941C23.3875 21.9003 23.2603 21.8476 23.1277 21.8476C22.9951 21.8476 22.8679 21.9003 22.7741 21.9941C22.6804 22.0878 22.6277 22.215 22.6277 22.3476C22.6277 22.4802 22.6804 22.6074 22.7741 22.7012L25.1501 25.0771C25.2477 25.1747 25.3756 25.2235 25.5036 25.2235C25.6316 25.2235 25.7596 25.1747 25.8572 25.0771C25.9036 25.0306 25.9405 24.9755 25.9656 24.9148C25.9907 24.8542 26.0036 24.7892 26.0036 24.7235C26.0036 24.6578 25.9907 24.5928 25.9656 24.5322C25.9405 24.4715 25.9036 24.4164 25.8572 24.3699L23.4812 21.9941ZM8.51887 21.9941L6.14293 24.3699C6.04916 24.4637 5.99648 24.5909 5.99648 24.7235C5.99648 24.8561 6.04916 24.9833 6.14293 25.0771C6.2367 25.1708 6.36388 25.2235 6.4965 25.2235C6.62911 25.2235 6.75629 25.1708 6.85006 25.0771L9.226 22.7012C9.31977 22.6074 9.37245 22.4802 9.37245 22.3476C9.37245 22.215 9.31977 22.0878 9.226 21.9941C9.13223 21.9003 9.00505 21.8476 8.87243 21.8476C8.73982 21.8476 8.61264 21.9003 8.51887 21.9941Z" fill="#231F20"/>
</svg>
