<svg width="25" height="25" viewBox="0 0 25 25" fill="none" xmlns="http://www.w3.org/2000/svg">
<path d="M15.6369 24.8675C15.1549 24.8599 14.6839 24.7227 14.2733 24.4702C13.8627 24.2176 13.5277 23.8592 13.3035 23.4325L9.24354 16.0125C9.15512 15.8427 9.01664 15.7042 8.84687 15.6158L1.42687 11.6141C0.955409 11.358 0.569863 10.9687 0.318402 10.4947C0.066941 10.0208 -0.0392861 9.48322 0.0129918 8.94924C0.0652697 8.41526 0.273735 7.90852 0.612343 7.49233C0.950951 7.07614 1.40469 6.76895 1.91687 6.60915L21.2485 0.15748C21.7367 -0.0155283 22.2639 -0.0467154 22.7691 0.0675303C23.2743 0.181776 23.7368 0.436781 24.103 0.803016C24.4692 1.16925 24.7242 1.63173 24.8385 2.13691C24.9527 2.64209 24.9215 3.1693 24.7485 3.65748L18.2502 23.0008C18.0869 23.5053 17.7784 23.9503 17.3633 24.2803C16.9483 24.6102 16.4452 24.8104 15.9169 24.8558L15.6369 24.8675ZM21.7502 1.82581L2.41854 8.27748C2.23424 8.33673 2.07162 8.44924 1.9512 8.60081C1.83077 8.75238 1.75793 8.93623 1.74187 9.12915C1.72446 9.31976 1.76393 9.51126 1.85529 9.67946C1.94666 9.84766 2.08582 9.985 2.25521 10.0741L9.67521 14.0758C10.1472 14.3261 10.5332 14.7122 10.7835 15.1841L14.7502 22.6041C14.8394 22.7735 14.9767 22.9127 15.1449 23.0041C15.3131 23.0954 15.5046 23.1349 15.6952 23.1175C15.8881 23.1014 16.072 23.0286 16.2235 22.9082C16.3751 22.7877 16.4876 22.6251 16.5469 22.4408L23.0335 3.10915C23.1091 2.92964 23.1294 2.7317 23.0919 2.5406C23.0544 2.34949 22.9609 2.17388 22.8232 2.03617C22.6855 1.89847 22.5099 1.80491 22.3188 1.76744C22.1276 1.72998 21.9297 1.7503 21.7502 1.82581Z" fill="white"/>
<path d="M9.6985 16.0358C9.58325 16.0384 9.46872 16.0169 9.36225 15.9727C9.25577 15.9285 9.1597 15.8626 9.08017 15.7791C8.99762 15.6987 8.93201 15.6025 8.88721 15.4963C8.84241 15.3901 8.81934 15.2761 8.81934 15.1608C8.81934 15.0455 8.84241 14.9314 8.88721 14.8253C8.93201 14.7191 8.99762 14.6229 9.08017 14.5425L22.8002 0.775797C22.9703 0.605616 23.2012 0.51001 23.4418 0.51001C23.6825 0.51001 23.9133 0.605616 24.0835 0.775797C24.2537 0.945977 24.3493 1.17679 24.3493 1.41746C24.3493 1.65814 24.2537 1.88895 24.0835 2.05913L10.3168 15.7791C10.236 15.8609 10.1397 15.9258 10.0336 15.9698C9.92738 16.0139 9.81346 16.0363 9.6985 16.0358Z" fill="white"/>
</svg>
