<svg width="14" height="17" viewBox="0 0 14 17" fill="none" xmlns="http://www.w3.org/2000/svg">
<path d="M13.6534 1.9746L7.13985 0.0205292C7.04867 -0.00684308 6.95146 -0.00684308 6.86028 0.0205292L0.346705 1.9746C0.246494 2.00466 0.158644 2.06622 0.0961891 2.15016C0.0337345 2.2341 3.20679e-06 2.33593 0 2.44056V9.60544C0 10.5374 0.377256 11.4913 1.12129 12.4409C1.68958 13.1661 2.47575 13.8943 3.458 14.6053C5.10808 15.7997 6.73288 16.5324 6.80125 16.563C6.86378 16.591 6.93152 16.6055 7.00003 16.6055C7.06855 16.6055 7.13629 16.591 7.19881 16.563C7.26718 16.5324 8.89196 15.7997 10.542 14.6053C11.5243 13.8943 12.3104 13.1661 12.8787 12.4409C13.6227 11.4914 14 10.5374 14 9.60544V2.44056C14 2.33594 13.9663 2.2341 13.9039 2.15016C13.8414 2.06622 13.7536 2.00465 13.6534 1.9746ZM13.0271 9.60544C13.0271 11.2547 11.3722 12.8012 9.98403 13.8081C8.73946 14.7108 7.47728 15.3513 7.00007 15.5814C6.52285 15.3513 5.26064 14.7108 4.01607 13.8081C2.62782 12.8012 0.972979 11.2547 0.972979 9.60544V2.8025L7.00003 0.994384L13.0271 2.8025V9.60544Z" fill="white"/>
</svg>
