<svg width="20" height="20" viewBox="0 0 20 20" fill="none" xmlns="http://www.w3.org/2000/svg">
<path d="M16.3597 17.3603C16.1615 17.3604 15.9677 17.3017 15.803 17.1915C15.6382 17.0813 15.5099 16.9247 15.4344 16.7414C15.3588 16.5582 15.3394 16.3566 15.3787 16.1624C15.4179 15.9681 15.514 15.7899 15.6547 15.6503C17.1667 14.1483 17.9997 12.1423 17.9997 10.0004C17.9997 7.85839 17.1667 5.85241 15.6547 4.35043C15.4665 4.16346 15.3603 3.90939 15.3595 3.64412C15.3586 3.37886 15.4632 3.12412 15.6502 2.93595C15.8372 2.74778 16.0912 2.6416 16.3565 2.64075C16.6218 2.63991 16.8765 2.74448 17.0647 2.93145C18.9576 4.81243 19.9996 7.32239 19.9996 10.0004C19.9996 12.6783 18.9576 15.1883 17.0647 17.0693C16.8775 17.2559 16.624 17.3605 16.3597 17.3603Z" fill="#2196F3"/>
<path d="M13.5297 14.5303C13.3313 14.5307 13.1372 14.4721 12.9722 14.3618C12.8073 14.2515 12.6789 14.0945 12.6035 13.911C12.528 13.7274 12.509 13.5255 12.5488 13.3311C12.5885 13.1367 12.6853 12.9585 12.8267 12.8193C13.5717 12.0823 13.9997 11.0543 13.9997 10.0004C13.9997 8.94637 13.5717 7.91838 12.8267 7.18139C12.7309 7.08965 12.6542 6.97975 12.6012 6.85808C12.5482 6.73641 12.52 6.60541 12.5182 6.47272C12.5163 6.34003 12.5409 6.2083 12.5905 6.08521C12.6401 5.96212 12.7137 5.85013 12.807 5.75576C12.9003 5.6614 13.0114 5.58655 13.1339 5.53558C13.2565 5.4846 13.3879 5.45853 13.5206 5.45887C13.6533 5.45921 13.7846 5.48595 13.9069 5.53755C14.0291 5.58915 14.1399 5.66457 14.2327 5.75941C14.7914 6.31557 15.235 6.97637 15.5382 7.70406C15.8414 8.43174 15.9982 9.21204 15.9997 10.0004C15.9982 10.7887 15.8414 11.569 15.5382 12.2967C15.235 13.0243 14.7914 13.6851 14.2327 14.2413C14.0458 14.4268 13.7931 14.5307 13.5297 14.5303Z" fill="#2196F3"/>
<path d="M10.3829 0.0764753C10.2001 0.000503578 9.99895 -0.0194298 9.80487 0.0192084C9.61079 0.0578465 9.43258 0.153312 9.29288 0.293472L4.58594 5.00041H1.99997C0.896988 5.00041 0 5.8974 0 7.00038V13.0003C0 14.1033 0.896988 15.0003 1.99997 15.0003H4.58594L9.29288 19.7072C9.43273 19.847 9.61089 19.9422 9.80484 19.9808C9.99879 20.0194 10.1998 19.9996 10.3825 19.9239C10.5652 19.8482 10.7214 19.7201 10.8313 19.5557C10.9411 19.3913 10.9998 19.198 10.9999 19.0002V1.00046C10.9999 0.8027 10.9413 0.609362 10.8315 0.444896C10.7217 0.280429 10.5655 0.152219 10.3829 0.0764753Z" fill="#64B5F6"/>
</svg>
