<svg width="19" height="19" viewBox="0 0 19 19" fill="none" xmlns="http://www.w3.org/2000/svg">
<path d="M17.1948 8.0616H10.9467V1.81344C10.9467 0.811917 10.1347 0 9.13319 0H1.79699C0.799997 0.00455938 -0.0045401 0.816438 1.92834e-05 1.8134V9.1414C1.92834e-05 10.1338 0.804557 10.9384 1.79699 10.9384H8.06162V17.203C8.06162 18.1954 8.86616 19 9.8586 19H17.1866C18.1835 19.0045 18.9954 18.2 19 17.203V9.87504C19 8.87673 18.1931 8.06612 17.1948 8.0616ZM8.06162 9.88327V10.1224L1.79699 10.1141C1.2598 10.1141 0.82434 9.6786 0.82434 9.14144V1.81344C0.81978 1.27172 1.2552 0.828841 1.79696 0.824282H9.125C9.67128 0.824282 10.1142 1.26716 10.1142 1.81344V8.06983H9.85864C8.8616 8.07439 8.05706 8.88627 8.06162 9.88327ZM18.1839 17.203C18.1794 17.7448 17.7366 18.1803 17.1949 18.1757H9.86683C9.32963 18.1757 8.89417 17.7402 8.89417 17.203V9.87504C8.88961 9.33332 9.32503 8.89044 9.86679 8.88588H17.1948C17.7411 8.88588 18.1839 9.32872 18.1839 9.87504V17.203Z" fill="white"/>
<path d="M15.9667 16.1067L13.9225 10.6746C13.8212 10.4606 13.5656 10.3693 13.3517 10.4706C13.2621 10.513 13.19 10.5851 13.1476 10.6746L11.1528 16.0985C11.0732 16.3125 11.182 16.5505 11.396 16.6301C11.61 16.7098 11.848 16.6009 11.9277 16.387L12.414 15.0846H14.7056L15.1919 16.387C15.2207 16.4666 15.2734 16.5355 15.3427 16.5842C15.412 16.6328 15.4946 16.659 15.5793 16.659C15.807 16.6589 15.9914 16.4743 15.9913 16.2467C15.9913 16.199 15.9829 16.1516 15.9667 16.1067ZM12.6943 14.2685L13.5185 12.0017L14.3428 14.2685H12.6943ZM8.08646 8.09456C7.39205 8.09321 6.7121 7.89608 6.12465 7.5258C6.85118 6.78095 7.29939 5.80885 7.39405 4.77267H8.08646C8.31408 4.77267 8.49862 4.58813 8.49862 4.36051C8.49862 4.13288 8.31408 3.94835 8.08646 3.94835H5.88559V2.43989C5.88559 2.21227 5.70105 2.02773 5.47343 2.02773C5.24581 2.02773 5.06127 2.21227 5.06127 2.43989V3.94835H2.84395C2.61632 3.94835 2.43179 4.13288 2.43179 4.36051C2.43179 4.58813 2.61632 4.77267 2.84395 4.77267H3.54458C3.63991 5.80868 4.08802 6.78056 4.81398 7.5258C4.22598 7.89484 3.54639 8.09186 2.85218 8.09456C2.62455 8.09456 2.44002 8.2791 2.44002 8.50672C2.44002 8.73434 2.62455 8.91888 2.85218 8.91888C3.78999 8.92081 4.7055 8.63292 5.47343 8.0946C6.23834 8.63277 7.1512 8.92073 8.08646 8.91888C8.31408 8.91888 8.49862 8.73434 8.49862 8.50672C8.49862 8.2791 8.31408 8.09456 8.08646 8.09456ZM4.39363 4.77267H6.55327C6.46594 5.62791 6.08424 6.42626 5.47343 7.03122C4.8632 6.42585 4.48162 5.62772 4.39363 4.77267ZM18.9836 6.21517C18.9792 2.79733 16.2192 0.0226423 12.8014 0C12.5738 0 12.3893 0.184539 12.3893 0.41216C12.3893 0.639781 12.5738 0.82432 12.8014 0.82432C15.6723 0.829653 18.0354 3.084 18.1758 5.95142H16.8157C16.5881 5.95142 16.4036 6.13596 16.4036 6.36358C16.4036 6.5912 16.5881 6.77574 16.8157 6.77574H18.5715C18.7991 6.77574 18.9836 6.5912 18.9836 6.36358C18.986 6.33889 18.986 6.31409 18.9836 6.28939C18.986 6.2647 18.986 6.23986 18.9836 6.21517ZM6.20707 18.1839C3.33922 18.1788 0.977381 15.9293 0.832679 13.0651H2.1845C2.41212 13.0651 2.59666 12.8805 2.59666 12.6529C2.59666 12.4253 2.41212 12.2408 2.1845 12.2408H0.437018C0.209396 12.2408 0.0248574 12.4253 0.0248574 12.6529C0.0229642 12.6749 0.0229642 12.6969 0.0248574 12.7189C0.0229642 12.7408 0.0229642 12.7629 0.0248574 12.7849C0.0247801 16.2059 2.78606 18.9856 6.20707 19.0083C6.43469 19.0083 6.61923 18.8237 6.61923 18.5961C6.61923 18.3685 6.43469 18.1839 6.20707 18.1839Z" fill="white"/>
</svg>
