<svg width="24" height="25" viewBox="0 0 24 25" fill="none" xmlns="http://www.w3.org/2000/svg">
<path d="M21.7197 10.1831H13.8274V2.29066C13.8274 1.02558 12.8018 0 11.5367 0H2.26989C1.01052 0.00575922 -0.00573486 1.03129 2.4358e-05 2.29061V11.547C2.4358e-05 12.8006 1.01628 13.8169 2.26989 13.8169H10.1831V21.7301C10.1831 22.9837 11.1994 24 12.453 24H21.7093C22.9687 24.0057 23.9942 22.9895 24 21.7302V12.4737C24 11.2127 22.9808 10.1888 21.7197 10.1831ZM10.1831 12.4841V12.7861L2.26989 12.7757C1.59133 12.7757 1.04127 12.2256 1.04127 11.5471V2.29066C1.03551 1.60638 1.58552 1.04696 2.26984 1.0412H11.5263C12.2163 1.0412 12.7758 1.60062 12.7758 2.29066V10.1935H12.453C11.1936 10.1992 10.1773 11.2248 10.1831 12.4841ZM22.9692 21.7302C22.9635 22.4144 22.4041 22.9645 21.7198 22.9588H12.4634C11.7848 22.9588 11.2347 22.4087 11.2347 21.7302V12.4737C11.229 11.7895 11.779 11.23 12.4633 11.2243H21.7197C22.4098 11.2243 22.9692 11.7837 22.9692 12.4737V21.7302Z" fill="black"/>
<path d="M20.1682 20.3453L17.586 13.4837C17.458 13.2134 17.1352 13.098 16.8649 13.226C16.7518 13.2795 16.6608 13.3706 16.6072 13.4837L14.0875 20.3349C13.9868 20.6052 14.1244 20.9059 14.3946 21.0065C14.6649 21.1071 14.9656 20.9696 15.0662 20.6994L15.6805 19.0542H18.5751L19.1895 20.6994C19.2259 20.8 19.2924 20.8869 19.3799 20.9484C19.4675 21.0099 19.5719 21.0429 19.6789 21.043C19.9664 21.0428 20.1994 20.8097 20.1992 20.5221C20.1992 20.4618 20.1887 20.402 20.1682 20.3453ZM16.0345 18.0234L17.0757 15.1601L18.1169 18.0234H16.0345ZM10.2142 10.2247C9.33702 10.223 8.47814 9.97399 7.73609 9.50627C8.65381 8.5654 9.21997 7.3375 9.33955 6.02863H10.2142C10.5017 6.02863 10.7348 5.79553 10.7348 5.50801C10.7348 5.22049 10.5017 4.98738 10.2142 4.98738H7.43413V3.08196C7.43413 2.79444 7.20102 2.56134 6.9135 2.56134C6.62598 2.56134 6.39288 2.79444 6.39288 3.08196V4.98738H3.59204C3.30452 4.98738 3.07142 5.22049 3.07142 5.50801C3.07142 5.79553 3.30452 6.02863 3.59204 6.02863H4.47706C4.59748 7.33727 5.16351 8.56491 6.08051 9.50627C5.33777 9.97242 4.47934 10.2213 3.60244 10.2247C3.31492 10.2247 3.08182 10.4578 3.08182 10.7453C3.08182 11.0329 3.31492 11.266 3.60244 11.266C4.78705 11.2684 5.94348 10.9047 6.9135 10.2248C7.8797 10.9046 9.03279 11.2683 10.2142 11.266C10.5017 11.266 10.7348 11.0329 10.7348 10.7453C10.7348 10.4578 10.5017 10.2247 10.2142 10.2247ZM5.54954 6.02863H8.27751C8.16719 7.10894 7.68505 8.11738 6.9135 8.88154C6.14268 8.11687 5.66068 7.10869 5.54954 6.02863ZM23.979 7.85074C23.9734 3.53347 20.4871 0.0286009 16.1699 0C15.8824 0 15.6493 0.233102 15.6493 0.520623C15.6493 0.808145 15.8824 1.04125 16.1699 1.04125C19.7963 1.04798 22.7812 3.89557 22.9586 7.51758H21.2406C20.9531 7.51758 20.72 7.75069 20.72 8.03821C20.72 8.32573 20.9531 8.55883 21.2406 8.55883H23.4584C23.7459 8.55883 23.979 8.32573 23.979 8.03821C23.982 8.00702 23.982 7.97569 23.979 7.9445C23.982 7.91331 23.982 7.88193 23.979 7.85074ZM7.8402 22.9692C4.21765 22.9627 1.23428 20.1212 1.0515 16.5032H2.75906C3.04658 16.5032 3.27968 16.2701 3.27968 15.9826C3.27968 15.6951 3.04658 15.462 2.75906 15.462H0.551714C0.264192 15.462 0.0310904 15.6951 0.0310904 15.9827C0.028699 16.0104 0.028699 16.0383 0.0310904 16.066C0.028699 16.0937 0.028699 16.1216 0.0310904 16.1493C0.0309928 20.4706 3.51893 23.9818 7.8402 24.0105C8.12772 24.0105 8.36082 23.7774 8.36082 23.4898C8.36082 23.2023 8.12772 22.9692 7.8402 22.9692Z" fill="black"/>
</svg>
